<?xml version="1.0" encoding="utf-8"?>
<!-- Generator: Adobe Illustrator 19.1.0, SVG Export Plug-In . SVG Version: 6.00 Build 0)  -->
<svg version="1.1" id="Layer_1" xmlns="http://www.w3.org/2000/svg" xmlns:xlink="http://www.w3.org/1999/xlink" x="0px" y="0px"
	 viewBox="0 0 208.5 128" style="enable-background:new 0 0 208.5 128;" xml:space="preserve">
<style type="text/css">
	.st0{fill-rule:evenodd;clip-rule:evenodd;fill:#C2A752;}
	.st1{fill-rule:evenodd;clip-rule:evenodd;fill:#6C97C1;}
	.st2{fill:#6C97C1;}
	.st3{fill-rule:evenodd;clip-rule:evenodd;fill:none;}
	.st4{font-family:'Sabon-BoldItalicOsF';}
	.st5{font-size:21px;}
</style>
<g>
	<polygon class="st0" points="133.2,82.7 133.2,82.7 133.2,82.8 133.2,82.8 133.1,82.8 132.4,83.8 131.7,84.6 131.1,85.3 
		130.6,85.7 129.9,86.1 129.2,86.3 128.4,86.3 127.5,86.1 127.1,86 126.7,85.8 126.2,85.6 125.8,85.4 125.3,85 124.7,84.7 
		124.2,84.3 123.6,83.9 123.1,83.5 122.5,83 122,82.5 121.4,82 120.9,81.5 120.4,80.9 119.8,80.4 119.4,79.8 118.9,80.6 119.4,81.2 
		119.8,81.8 120.4,82.3 120.9,82.8 121.5,83.4 122,83.9 122.6,84.4 123.1,84.9 123.7,85.3 124.2,85.7 124.7,86.1 125.3,86.5 
		125.8,86.9 126.2,87.1 126.7,87.4 127.1,87.6 127.9,87.8 128.6,87.8 129.3,87.6 130,87.3 130.6,86.9 131.2,86.5 131.6,86 132,85.6 
		132.2,85.3 132.4,85 132.6,84.8 132.8,84.5 133,84.2 133.3,83.9 133.5,83.7 133.8,83.4 133.2,82.7 	"/>
	<polygon class="st1" points="112.4,79.2 111.9,78.7 111.4,78.2 110.9,77.7 110.5,77.2 110,76.6 109.6,76.1 109.2,75.5 108.9,74.9 
		108.6,74.3 108.4,73.8 108.4,73.2 108.4,72.7 108.6,72.2 108.9,71.7 109.3,71.3 109.9,70.9 110.6,70.6 111.3,70.5 111.8,70.5 
		112.4,70.7 112.9,71 113.3,71.5 113.6,72 113.9,72.6 114.1,73.3 114.2,74.1 114.2,74.9 114,75.7 113.8,76.6 113.5,77.5 113,78.3 
		112.4,79.2 111.8,79.8 111.3,80.5 110.8,81.1 110.2,81.7 109.8,82.2 109.3,82.8 108.8,83.3 108.3,83.8 107.8,84.3 107.4,84.7 
		106.9,85.2 106.5,85.7 106.1,86.1 105.6,86.5 105.2,86.9 104.7,87.4 105,87.5 105.2,87.3 105.4,87.1 105.6,86.9 105.8,86.7 
		106,86.5 106.2,86.4 106.4,86.2 106.6,86 107,85.6 107.4,85.3 107.8,84.9 108.1,84.6 108.5,84.2 108.8,83.8 109.2,83.5 109.5,83.1 
		109.9,82.7 110.2,82.3 110.6,81.8 111,81.3 111.5,80.8 111.9,80.3 112.4,79.7 113,79.1 113.5,78.4 113.9,77.7 114.3,77 114.6,76.4 
		114.8,75.7 115,75 115,74.3 115,73.7 115,73.1 114.9,72.5 114.7,72 114.4,71.4 114.1,71 113.7,70.6 113.3,70.3 112.8,70 
		111.9,69.7 110.9,69.7 110.1,69.9 109.3,70.2 108.7,70.8 108.1,71.4 107.7,72 107.5,72.7 107.4,73 107.4,73.3 107.5,73.7 
		107.6,74.1 107.7,74.6 107.9,75 108.1,75.5 108.4,76.1 108.7,76.6 109,77.1 109.4,77.6 109.8,78.1 110.2,78.7 110.6,79.2 
		111.1,79.7 111.6,80.1 112.4,79.2 	"/>
	<polygon class="st1" points="118.6,86.7 118.2,87.3 117.9,87.9 117.6,88.4 117.4,89 117.2,89.5 117.1,90 117,90.4 117,90.8 
		117,91.2 117,91.6 117.2,91.9 117.3,92.2 117.5,92.4 117.7,92.7 118,92.8 118.3,93 119.1,93.2 119.7,93.1 120.2,92.7 120.5,92.2 
		120.8,91.7 120.9,91 120.9,90.4 120.8,89.9 120.6,89.4 120.3,89 119.9,88.4 119.5,87.8 119,87.2 118.5,86.6 117.9,86 117.3,85.3 
		116.7,84.7 116,84 115.4,83.4 114.7,82.8 114,82.2 113.4,81.7 112.8,81.1 112.2,80.6 112,80.5 111.9,80.4 111.7,80.3 111.6,80.1 
		112.4,79.2 112.8,79.6 113.3,80.1 113.8,80.5 114.3,80.9 114.8,81.3 115.3,81.7 115.7,82.2 116.2,82.6 116.7,83 117.1,83.4 
		117.6,83.8 118,84.2 118.4,84.6 118.8,85 119.1,85.5 119.5,85.9 119.8,86.3 120.1,86.7 120.3,87.1 120.6,87.5 120.8,87.9 121,88.3 
		121.3,88.7 121.4,89.1 121.5,89.5 121.6,89.8 121.7,90.2 121.7,90.6 121.7,91 121.6,91.3 121.5,91.7 121.3,92 120.9,92.8 
		120.4,93.3 119.9,93.6 119.4,93.8 119,93.8 118.5,93.7 118,93.4 117.6,93 117.3,92.6 116.9,92.1 116.7,91.5 116.5,90.9 116.3,90.3 
		116.3,89.8 116.3,89.2 116.4,88.7 116.5,88.4 116.7,88.1 116.9,87.8 117.1,87.4 117.3,87.1 117.6,86.8 117.8,86.4 118.1,86.1 
		118.6,86.7 	"/>
	<polygon class="st1" points="133.8,83.4 134.1,83.2 134.5,82.9 134.9,82.7 135.2,82.6 135.5,82.6 135.9,82.7 136.3,83 136.7,83.2 
		136.9,83.6 137,83.9 136.9,84.3 136.6,84.6 136.4,84.7 136.1,84.7 135.9,84.7 135.6,84.7 135.3,84.6 135,84.4 134.6,84.1 
		134.1,83.8 133.9,83.5 133.6,83.2 133.3,82.8 132.9,82.4 132.6,82 132.2,81.6 131.8,81.2 131.4,80.9 130.9,80.6 130.4,80.3 
		129.8,80.1 129.1,80 128.5,80 127.7,80.1 126.9,80.3 126.1,80.6 125.4,80.9 124.8,81.3 124.2,81.6 123.6,81.9 123,82.2 122.5,82.5 
		121.9,82.9 121.4,83.2 120.9,83.6 120.5,83.9 120,84.3 119.6,84.6 119.2,85 118.8,85.4 118.4,85.7 118.1,86.1 118.6,86.7 
		118.7,86.5 118.8,86.4 118.9,86.2 119,86.1 119.1,86 119.1,85.8 119.3,85.7 119.4,85.5 120.3,84.6 121.3,83.8 122.4,83.2 
		123.3,82.6 124.3,82.2 125.1,81.9 125.9,81.6 126.5,81.4 127.2,81.2 127.8,81.1 128.3,81.1 128.8,81.2 129.3,81.3 129.7,81.5 
		130.1,81.8 130.5,82.1 130.9,82.4 131.2,82.8 131.6,83.2 131.9,83.5 132.2,83.9 132.5,84.3 132.8,84.7 133.1,85.1 134.1,86.1 
		135,86.5 135.8,86.5 136.5,86.1 136.9,85.5 137.3,84.9 137.5,84.3 137.6,83.8 137.5,83 137.1,82.5 136.6,82.1 135.9,82 135.2,82 
		134.5,82.1 133.8,82.3 133.2,82.7 133.8,83.4 	"/>
	<polygon class="st1" points="99.1,79.3 98.7,78.7 98.3,78 98,77.4 97.8,76.8 97.6,76.2 97.4,75.6 97.3,75 97.3,74.5 97.5,73 
		97.8,72 98.3,71.2 98.9,70.8 99.5,70.6 100.2,70.6 100.9,70.9 101.4,71.2 101.7,71.4 102,71.7 102.2,71.9 102.5,72.1 102.7,72.4 
		102.8,72.6 102.9,73 102.9,73.3 102.9,73.8 102.7,74.3 102.5,74.8 102.1,75.5 101.6,76.2 101,77.1 100.2,78 99.3,79.1 98.7,79.7 
		98.1,80.4 97.5,80.9 96.9,81.5 96.4,82 95.9,82.5 95.4,83 94.9,83.5 94.4,83.9 93.9,84.3 93.5,84.6 93.1,85 92.7,85.3 92.3,85.6 
		92,86 91.6,86.3 91.4,86.5 91.2,86.6 91.1,86.7 90.9,86.9 91.5,87.3 91.6,87.2 91.7,87 91.8,86.9 92,86.6 92.5,86.1 93.2,85.5 
		93.9,85 94.6,84.4 95.4,83.8 96.1,83.2 96.9,82.6 97.5,82 97.9,81.6 98.4,81.1 98.8,80.6 99.3,80.1 99.8,79.6 100.3,79.1 
		100.9,78.5 101.3,77.9 101.8,77.3 102.2,76.8 102.6,76.2 102.9,75.7 103.2,75.2 103.4,74.7 103.5,74.3 103.5,73.9 103.4,73 
		103.2,72.3 102.9,71.7 102.5,71.2 102.1,70.8 101.6,70.5 101.1,70.4 100.5,70.3 100,70.3 99.4,70.3 98.8,70.5 98.3,70.7 97.8,71 
		97.3,71.3 96.9,71.6 96.6,72 96.4,72.4 96.2,72.8 96.1,73.2 96,73.7 95.9,74.1 95.8,74.6 95.9,75.1 95.9,75.7 96,76.2 96.1,76.8 
		96.3,77.4 96.5,78 96.8,78.7 97.1,79.3 97.4,80 97.8,80.7 99.1,79.3 	"/>
	<g id="XMLID_1_">
		<g>
			<polygon class="st2" points="94.9,90.5 94.9,90.9 94.9,91.3 94.8,91.7 94.7,92 94.6,92.4 94.4,92.7 94.3,93 94,93.2 93.7,93.5 
				93.4,93.7 93.1,93.8 92.7,93.9 92.3,94 91.9,93.9 91.5,93.9 91.1,93.7 90.8,93.5 90.4,93.2 90.1,92.9 89.8,92.6 89.6,92.2 
				89.4,91.8 89.3,91.3 89.2,90.9 89.2,90.4 89.2,90 89.4,89.5 89.5,89.1 89.7,88.8 89.8,88.5 90,88.1 90.2,87.8 90.5,87.4 
				90.7,87.2 90.9,86.9 91.5,87.3 91.3,87.7 91,88.1 90.9,88.5 90.7,89 90.6,89.4 90.5,89.8 90.5,90.3 90.5,90.7 90.5,91.2 
				90.6,91.6 90.8,92 91,92.3 91.3,92.6 91.7,92.9 92.1,93.1 92.6,93.3 93.1,93.3 93.6,93 93.9,92.6 94.1,92 94.2,91.3 94.1,90.6 
				94,90.1 93.7,89.6 93.6,89.4 93.4,89.2 93.1,88.9 92.8,88.6 92.5,88.3 92.1,87.9 91.7,87.6 91.5,87.3 91.3,87.2 90.8,86.7 
				90.3,86.3 89.7,85.9 89.2,85.5 88.6,85.1 88,84.7 87.4,84.3 86.8,84 85.7,83.4 84.6,82.8 83.8,82.3 83,81.9 82.2,81.7 81.4,81.7 
				80.6,82 79.7,82.6 79.4,82.9 79.2,83.1 78.8,83.4 78.5,83.7 78.2,84 77.9,84.2 77.7,84.5 77.5,84.6 77.1,84.3 77.2,84.2 
				77.4,84.1 77.6,83.9 77.8,83.7 78,83.5 78.2,83.3 78.4,83.1 78.5,83 79.3,82.1 80,81.5 80.7,81 81.4,80.7 82,80.5 82.7,80.3 
				83.5,80.3 84.2,80.3 84.7,80.4 85.2,80.6 85.9,81 86.6,81.4 87.4,81.9 88.2,82.5 89,83.1 89.9,83.8 90.7,84.5 91.5,85.2 
				92.2,85.9 92.9,86.6 93.5,87.2 93.9,87.8 94.3,88.3 94.5,88.7 94.6,89.1 94.8,89.4 94.9,89.8 94.9,90.2 			"/>
		</g>
		<g>
		</g>
	</g>
	<polygon class="st0" points="91.7,81.7 90.9,80.7 90.2,79.8 89.8,78.9 89.5,78.1 89.4,77.4 89.3,76.8 89.4,76.2 89.6,75.7 
		89.8,75.2 90.1,74.8 90.5,74.4 90.8,74.1 91.3,73.9 91.6,73.7 92,73.5 92.4,73.5 92.7,73.4 93,73.5 93.3,73.6 93.6,73.8 93.9,74 
		94.1,74.3 94.3,74.6 94.5,75 94.7,75.5 94.8,75.9 94.8,76.4 94.9,76.9 94.8,77.4 94.7,78 94.6,78.5 94.4,79.1 94.2,79.6 93.9,80.1 
		93.6,80.6 93.3,81 93,81.4 92.7,81.8 92.3,82.2 92,82.5 91.6,82.9 91.2,83.2 90.8,83.6 90.4,83.9 89.9,84.3 89.5,84.7 89.1,85 
		88.6,85.4 87.6,86.2 86.6,86.8 85.5,87.2 84.5,87.5 83.5,87.6 82.5,87.7 81.6,87.6 80.7,87.3 80,86.9 79.2,86.4 78.5,85.8 
		77.9,85.1 77.2,84.4 76.6,83.9 76,83.4 75.5,83.1 75,82.9 74.6,82.8 74.2,82.8 73.9,82.9 73.7,83 73.6,83.3 73.6,83.7 73.8,84.3 
		74.1,84.8 74.4,85.2 74.8,85.4 75.3,85.4 75.7,85.4 76.2,85.2 76.6,84.8 77.1,84.3 77.5,84.6 76.9,85.1 76.4,85.5 75.9,85.7 
		75.4,85.9 75,85.9 74.7,85.9 74.4,85.8 74.1,85.7 73.6,85.2 73.3,84.7 73.1,84.2 73.1,83.7 73.1,83.2 73.3,82.8 73.5,82.5 
		73.8,82.2 74.5,81.8 75.2,81.6 76,81.6 76.7,81.9 77.1,82.1 77.5,82.5 77.9,83 78.5,83.6 79.1,84.2 79.7,84.7 80.4,85.2 81.2,85.7 
		82,86 83,86.3 84,86.4 85.1,86.4 86.3,86.1 87.6,85.4 89.1,84.4 90.6,83 91.3,82.2 91.9,81.4 92.5,80.6 92.9,79.9 93.3,79.2 
		93.5,78.6 93.7,78 93.9,77.4 93.9,76.9 93.9,76.4 93.8,76 93.7,75.6 93.5,75.3 93.2,75.1 92.9,74.9 92.6,74.8 92.2,74.8 91.9,74.8 
		91.6,74.9 91.3,75.1 91,75.3 90.8,75.5 90.6,75.9 90.5,76.2 90.4,76.7 90.4,77.1 90.5,77.6 90.7,78.1 91,78.7 91.3,79.3 91.8,79.9 
		92.4,80.6 92.4,80.7 92.3,80.9 92.2,81 92.2,81.2 92,81.3 92,81.4 91.8,81.6 91.7,81.7 	"/>
	<polygon class="st0" points="98.8,88.4 98.7,88.5 98.6,88.7 98.5,88.8 98.4,88.9 97.9,89.6 97.4,90.3 97.1,91.1 96.9,91.8 
		96.8,92.4 96.8,93.1 96.8,93.8 97,94.4 97.2,95 97.4,95.5 97.7,96 98,96.4 98.4,96.8 98.7,97.1 99,97.4 99.3,97.5 99.6,97.6 
		99.9,97.7 100.2,97.7 100.5,97.6 100.8,97.6 101.1,97.4 101.3,97.2 101.6,97 101.8,96.7 102,96.4 102.1,96 102.2,95.5 102.3,95 
		102.3,94.5 102.3,93.9 102.2,93.3 102,92.6 101.8,92 101.4,91.3 101,90.7 100.5,90.1 99.9,89.5 99.3,88.8 98.6,88.2 97.8,87.5 
		97,86.8 96.1,86.1 95.3,85.3 94.4,84.5 93.5,83.6 92.6,82.7 91.7,81.7 91.9,81.6 92,81.4 92.1,81.3 92.2,81.1 92.3,81 92.3,80.9 
		92.4,80.7 92.4,80.6 93.1,81.3 93.9,82 94.8,82.8 95.7,83.5 96.6,84.3 97.6,85.1 98.5,85.9 99.4,86.8 100.2,87.6 101,88.4 
		101.7,89.2 102.3,90.1 102.8,90.9 103.1,91.7 103.3,92.4 103.3,93.2 103.3,93.9 103.2,94.5 103.1,95.1 103,95.7 102.9,96.1 
		102.7,96.5 102.5,96.9 102.4,97.3 102.1,97.6 101.9,97.8 101.6,98 101.3,98.1 100.9,98.2 100.5,98.3 100,98.3 99.5,98.3 99,98.3 
		98.5,98.1 98,97.9 97.5,97.6 97,97.2 96.5,96.7 96.1,96.2 95.8,95.6 95.6,95 95.4,94.3 95.4,93.6 95.5,92.9 95.7,92.1 96,91.3 
		96.5,90.5 97.1,89.7 97.2,89.5 97.4,89.3 97.6,89.1 97.8,89 98,88.8 98.1,88.6 98.3,88.4 98.5,88.2 98.8,88.4 	"/>
	<polygon class="st1" points="105,87.5 104.6,87.9 104.3,88.2 103.9,88.6 103.6,89 103.3,89.4 103,89.8 102.7,90.2 102.4,90.7 
		102.2,91.1 102,91.6 101.8,92 101.6,92.4 101.5,92.9 101.4,93.3 101.3,93.7 101.3,94.2 101.4,94.7 101.5,95.3 101.6,95.8 
		101.7,96.4 102,96.9 102.2,97.4 102.5,97.9 102.8,98.3 103.1,98.7 103.5,99.1 104,99.4 104.5,99.6 105,99.8 105.5,99.9 106.1,99.9 
		106.7,99.9 107.3,99.8 107.8,99.6 108.3,99.4 108.8,99.2 109.1,98.9 109.5,98.6 109.8,98.3 110,97.9 110.2,97.5 110.3,97.1 
		110.4,96.6 110.4,96.2 110.4,95.7 110.3,95.3 110.2,94.9 110,94.4 109.4,93.1 108.8,91.9 108.1,90.9 107.4,89.9 106.6,89.1 
		105.8,88.3 105,87.6 104.2,86.9 103.4,86.2 102.6,85.6 101.8,85 101,84.4 100.3,83.7 99.6,83 99,82.3 98.4,81.5 98.3,81.3 
		98.1,81.1 98,80.9 97.8,80.7 99.1,79.3 99.5,79.8 99.9,80.4 100.4,80.9 100.8,81.5 101.3,82 101.8,82.6 102.3,83.1 102.8,83.6 
		103.3,84 103.8,84.5 104.3,85 104.8,85.4 105.3,85.7 105.7,86.1 106.2,86.5 106.6,86.8 107.2,87.3 107.7,87.9 108.3,88.5 
		108.8,89.2 109.3,89.9 109.7,90.7 110.1,91.5 110.4,92.4 110.7,93.2 110.9,94 110.9,94.9 110.9,95.7 110.8,96.5 110.6,97.3 
		110.3,98.1 109.8,98.8 108.7,99.9 107.4,100.6 106.1,101 104.7,101 103.4,100.8 102.2,100.3 101.2,99.5 100.5,98.5 100.2,98 
		100,97.4 99.9,96.9 99.8,96.2 99.8,95.6 99.9,95 100.1,94.3 100.2,93.7 100.5,93 100.8,92.4 101.1,91.8 101.5,91.2 101.9,90.6 
		102.3,90 102.8,89.4 103.2,88.9 103.4,88.7 103.6,88.5 103.8,88.3 104,88.1 104.2,88 104.4,87.7 104.6,87.6 104.7,87.4 105,87.5 	
		"/>
	<polygon class="st0" points="106.4,79.8 106.1,79.4 105.8,79 105.5,78.7 105.1,78.3 104.8,77.9 104.5,77.5 104.2,77.1 103.9,76.7 
		103.6,76.3 103.3,76 103.1,75.6 102.8,75.2 102.5,74.9 102.3,74.5 102.1,74.1 101.9,73.8 101.6,73.2 101.4,72.6 101.3,72.1 
		101.3,71.6 101.4,71.1 101.5,70.7 101.7,70.3 102,70 102.3,69.6 102.7,69.3 103.1,69.1 103.4,68.8 103.8,68.6 104.2,68.4 
		104.6,68.3 104.9,68.1 105.2,68 105.6,67.9 106,67.9 106.4,67.9 106.8,68 107.2,68.1 107.6,68.3 108,68.6 108.4,68.9 108.7,69.3 
		109.1,69.7 109.3,70.3 109.5,70.9 109.7,71.6 109.8,72.4 109.8,73.2 109.7,74.1 109.5,75 109.1,75.9 108.6,76.8 108,77.8 
		107.3,78.8 106.5,79.8 105.7,80.7 104.8,81.7 103.9,82.7 102.9,83.7 102,84.6 101.1,85.6 100.2,86.5 99.3,87.4 98.5,88.2 
		98.8,88.4 99.4,87.7 100.1,87 100.8,86.3 101.5,85.6 102.2,84.9 102.9,84.2 103.6,83.5 104.3,82.8 105,82.1 105.6,81.4 106.2,80.8 
		106.8,80.1 107.3,79.4 107.8,78.8 108.2,78.2 108.6,77.6 109,77 109.3,76.4 109.6,75.8 109.9,75.3 110.2,74.7 110.4,74.2 
		110.6,73.6 110.8,73.1 110.9,72.5 110.9,72 110.9,71.4 110.7,70.9 110.6,70.3 110.2,69.7 109.8,69.1 109.4,68.5 108.8,68 
		108.2,67.6 107.5,67.2 106.8,67.1 106.1,67 105.4,67 104.7,67.1 104,67.3 103.4,67.6 102.8,67.9 102.2,68.3 101.7,68.8 101.3,69.4 
		101,70 100.8,70.7 100.7,71.4 100.6,72.1 100.6,72.8 100.7,73.4 100.7,74 100.8,74.6 100.9,75.2 101.1,75.8 101.3,76.4 101.5,77 
		101.8,77.6 102.2,78.2 102.6,78.8 103.1,79.5 103.7,80.1 104.3,80.8 105,81.5 106.4,79.8 	"/>
	<polygon class="st0" points="112.1,88.3 111.9,88.6 111.6,88.9 111.4,89.1 111.2,89.4 110.9,89.8 110.7,90.1 110.5,90.4 
		110.3,90.7 110.1,91 109.9,91.3 109.7,91.7 109.5,92 109.3,92.4 109.1,92.8 109,93.2 108.8,93.6 108.6,94.3 108.5,95 108.6,95.6 
		108.7,96.1 108.9,96.6 109.3,97 109.6,97.3 110.1,97.6 110.6,97.8 111.1,97.9 111.6,97.8 112.1,97.7 112.7,97.5 113.2,97.1 
		113.7,96.6 114.2,96 114.6,95.3 114.8,94.5 114.8,93.8 114.7,93 114.6,92.2 114.2,91.4 113.8,90.6 113.3,89.8 112.7,89 111.9,88.1 
		111.2,87.2 110.3,86.4 109.4,85.5 108.5,84.6 107.5,83.8 106.5,82.9 106.2,82.7 106,82.5 105.8,82.3 105.7,82.2 105.5,82 
		105.3,81.8 105.1,81.7 105,81.5 106.4,79.8 107.2,80.7 108,81.5 108.7,82.4 109.4,83.2 110.2,84.1 110.9,84.9 111.6,85.7 
		112.2,86.5 112.8,87.3 113.4,88 113.9,88.8 114.3,89.5 114.7,90.2 115,90.8 115.2,91.4 115.3,91.9 115.4,92.8 115.4,93.5 
		115.3,94.3 115.1,94.9 114.9,95.5 114.6,96 114.3,96.5 114,96.9 113.6,97.3 113.2,97.6 112.8,97.9 112.4,98.1 112,98.3 111.7,98.4 
		111.3,98.4 110.9,98.4 110.6,98.4 110.3,98.3 109.9,98.2 109.6,98 109.2,97.8 108.9,97.5 108.6,97.2 108.3,96.9 108.1,96.4 
		107.9,96 107.7,95.4 107.7,94.9 107.7,94.3 107.8,93.6 108,92.8 108.3,92 108.5,91.5 108.8,91 109.2,90.5 109.6,89.9 110.1,89.4 
		110.6,88.8 111.1,88.3 111.6,87.7 112.1,88.3 	"/>
	<polygon class="st0" points="119.4,79.8 119.1,79.4 118.7,78.9 118.4,78.5 118.1,78 117.8,77.6 117.6,77.1 117.4,76.7 117.3,76.3 
		117.2,75.7 117.3,75.1 117.4,74.7 117.6,74.4 117.9,74.1 118.3,74 118.6,74 119,74 119.3,74.2 119.7,74.5 120,74.9 120.2,75.3 
		120.3,75.9 120.4,76.6 120.3,77.4 120.1,78.3 119.9,78.9 119.6,79.5 119.2,80.2 118.8,80.7 118.3,81.3 117.8,81.9 117.3,82.5 
		116.7,83.1 116.1,83.7 115.4,84.3 114.8,84.9 114.1,85.4 113.5,86 112.8,86.6 112.2,87.2 111.6,87.7 112.1,88.3 112.4,87.9 
		112.8,87.5 113.2,87.1 113.6,86.7 114,86.3 114.4,85.8 114.9,85.3 115.4,84.8 116.1,84.1 116.7,83.5 117.3,82.9 117.9,82.4 
		118.5,81.9 119,81.4 119.5,80.9 120,80.5 120.4,80 120.7,79.5 121,79.1 121.3,78.5 121.4,78 121.5,77.4 121.5,76.7 121.5,76 
		121.1,74.8 120.4,73.9 119.5,73.5 118.5,73.4 117.6,73.6 116.9,74.2 116.3,75 116.2,76 116.3,76.5 116.5,77 116.7,77.6 117,78.1 
		117.4,78.7 117.9,79.4 118.3,80 118.9,80.6 119.4,79.8 	"/>
	<polygon class="st0" points="130.2,84.3 129.5,84.6 128.7,84.7 128.2,84.6 127.8,84.2 127.7,84 127.5,83.8 127.3,83.6 127.1,83.5 
		126.9,83.4 126.6,83.3 126.4,83.3 126.1,83.3 126.5,83 126.8,82.7 127.1,82.5 127.4,82.4 127.7,82.4 128,82.5 128.3,82.7 
		128.5,83.1 128.7,83.5 128.9,83.7 129.1,83.9 129.2,84 129.4,84 129.6,84.1 129.8,84.2 130.2,84.3 	"/>
	<polygon class="st0" points="85.2,85 84.5,85.4 83.8,85.4 83.2,85.3 82.9,84.9 82.7,84.7 82.5,84.5 82.4,84.4 82.1,84.3 81.9,84.1 
		81.6,84.1 81.4,84 81.2,84 81.5,83.7 81.8,83.5 82.1,83.3 82.4,83.2 82.8,83.2 83,83.2 83.3,83.5 83.5,83.8 83.8,84.2 83.9,84.4 
		84.1,84.6 84.2,84.7 84.4,84.7 84.6,84.8 84.9,84.9 85.2,85 	"/>
	<polygon class="st0" points="106.5,84.4 105.6,83.3 104.9,83.9 106,85 106.5,84.4 	"/>
</g>
<rect x="-27.6" y="31" class="st3" width="266" height="109"/>
<text transform="matrix(1 0 0 1 20.2509 47.0552)" class="st2 st4 st5">Not That Into You</text>
</svg>
