<svg id="hair_nano" xmlns="http://www.w3.org/2000/svg" viewBox="0 0 306.98 214.41"><defs><style>.cls-1,.cls-18{fill:#38beb4;}.cls-2,.cls-22,.cls-23,.cls-24,.cls-25,.cls-26,.cls-27,.cls-28,.cls-29,.cls-3,.cls-30,.cls-31,.cls-34,.cls-4{fill:none;}.cls-2{stroke:#38beb4;}.cls-2,.cls-22,.cls-23,.cls-24,.cls-25,.cls-26,.cls-27,.cls-28,.cls-29,.cls-3,.cls-30,.cls-31,.cls-4{stroke-miterlimit:10;stroke-width:0.75px;}.cls-3{stroke:#7bcbbd;}.cls-4{stroke:#2f8c9b;}.cls-5{font-size:5px;fill:#878686;}.cls-11,.cls-13,.cls-14,.cls-15,.cls-16,.cls-17,.cls-18,.cls-20,.cls-21,.cls-5,.cls-6,.cls-7,.cls-8,.cls-9{font-family:Myriad Pro;}.cls-11,.cls-13,.cls-14,.cls-15,.cls-16,.cls-17,.cls-18,.cls-20,.cls-21,.cls-6,.cls-7,.cls-8,.cls-9{font-size:7px;}.cls-19,.cls-6{fill:#7bcbbd;}.cls-32,.cls-7{fill:#7db2ac;}.cls-37,.cls-8{fill:#4f7a6b;}.cls-43,.cls-9{fill:#85b589;}.cls-10{font-size:8px;}.cls-11,.cls-42{fill:#b29674;}.cls-12{white-space:pre;}.cls-13,.cls-41{fill:#876e4c;}.cls-14,.cls-39{fill:#82745f;}.cls-15,.cls-38{fill:#c3b49b;}.cls-16,.cls-35{fill:#2f8c9b;}.cls-17{fill:#abc9c3;}.cls-20,.cls-40{fill:#3d362c;}.cls-21,.cls-36{fill:#7ac6ce;}.cls-22{stroke:#7db2ac;}.cls-23{stroke:#4f7a6b;}.cls-24{stroke:#85b589;}.cls-25{stroke:#b29674;}.cls-26{stroke:#876e4c;}.cls-27{stroke:#3d362c;}.cls-28{stroke:#82745f;}.cls-29{stroke:#c3b49b;}.cls-30{stroke:#7ac6ce;}.cls-31{stroke:#abc9c3;}.cls-33{fill:#6bc8be;}.cls-44{fill:#b5dbd5;}</style></defs><title>applications</title><path class="cls-1" d="M1458.15,6662.52l75.21-1.93,19.62-69.82s-42.51-8.13-68.67,12.5S1458.15,6662.52,1458.15,6662.52Z" transform="translate(-1401.26 -6570.05)"/><line class="cls-2" x1="71.16" y1="24.66" x2="108.29" y2="57.66"/><line class="cls-3" x1="153.79" y1="30.47" x2="163.35" y2="9.17"/><line class="cls-4" x1="74.27" y1="121.95" x2="53.89" y2="134.45"/><text class="cls-5" transform="translate(239.64 213.16)">E<tspan x="2.46" y="0">m</tspan><tspan x="6.38" y="0">T</tspan><tspan x="8.51" y="0">ech </tspan><tspan x="17.09" y="0">R</tspan><tspan x="19.8" y="0">esea</tspan><tspan x="29.2" y="0">r</tspan><tspan x="30.79" y="0">ch 2005</tspan></text><text class="cls-6" transform="translate(156.5 5.86)">T<tspan x="3.16" y="0">r</tspan><tspan x="5.42" y="0">anspo</tspan><tspan x="23.27" y="0">r</tspan><tspan x="25.73" y="0">t</tspan><tspan x="28.05" y="0">a</tspan><tspan x="31.39" y="0">tion (au</tspan><tspan x="53.78" y="0">t</tspan><tspan x="56.06" y="0">o/</tspan><tspan x="62.3" y="0">a</tspan><tspan x="65.62" y="0">vi</tspan><tspan x="70.62" y="0">a</tspan><tspan x="73.97" y="0">tion/ae</tspan><tspan x="94.93" y="0">r</tspan><tspan x="97.15" y="0">ospa</tspan><tspan x="111.12" y="0">c</tspan><tspan x="114.22" y="0">e}</tspan></text><text class="cls-7" transform="translate(185.98 17.1)">S<tspan x="3.49" y="0">emi</tspan><tspan x="14.48" y="0">c</tspan><tspan x="17.57" y="0">ondu</tspan><tspan x="33.1" y="0">c</tspan><tspan x="36.33" y="0">t</tspan><tspan x="38.6" y="0">ors</tspan></text><text class="cls-8" transform="translate(196.67 28.97)">C<tspan x="3.98" y="0">ompu</tspan><tspan x="21.5" y="0">t</tspan><tspan x="23.78" y="0">ers</tspan></text><text class="cls-9" transform="translate(211.9 43.08)">C<tspan x="3.98" y="0">ommunic</tspan><tspan x="32.02" y="0">a</tspan><tspan x="35.36" y="0">tions/</tspan><tspan x="0" y="9.6">Optical </tspan><tspan x="22.41" y="9.6">E</tspan><tspan x="25.82" y="9.6">quipmen</tspan><tspan class="cls-10" x="52.47" y="9.6">t</tspan></text><text class="cls-11" transform="translate(221.71 91.1)">M<tspan x="5.67" y="0">a</tspan><tspan x="9.02" y="0">t</tspan><tspan x="11.29" y="0">e</tspan><tspan x="14.8" y="0">r</tspan><tspan class="cls-12" x="17.12" y="0">ials  (inc</tspan><tspan x="40.17" y="0">l</tspan><tspan x="41.75" y="0">. metals)</tspan></text><text class="cls-13" transform="translate(188.81 170.83)">Chemicals (inc<tspan x="41.99" y="0">l</tspan><tspan x="43.57" y="0">. plastics)</tspan></text><text class="cls-14" transform="translate(121.58 186.69)">F<tspan x="3.23" y="0">ilms</tspan></text><text class="cls-15" transform="translate(23.01 183.07)">Ene<tspan x="10.84" y="0">r</tspan><tspan x="13.07" y="0">gy/E</tspan><tspan x="26.13" y="0">n</tspan><tspan x="29.92" y="0">vi</tspan><tspan x="34.92" y="0">r</tspan><tspan x="37.14" y="0">onme</tspan><tspan x="54.21" y="0">n</tspan><tspan x="58.07" y="0">t </tspan><tspan x="61.87" y="0">G</tspan><tspan x="66.43" y="0">ene</tspan><tspan x="77.33" y="0">r</tspan><tspan x="79.58" y="0">al </tspan><tspan x="0" y="8.4">(not indust</tspan><tspan x="31.93" y="8.4">r</tspan><tspan x="34.4" y="8.4">y specific)</tspan></text><text class="cls-16" transform="translate(0 142.99)">C<tspan x="3.98" y="0">onsumer </tspan><tspan x="31.46" y="0">P</tspan><tspan x="35.07" y="0">r</tspan><tspan x="37.29" y="0">odu</tspan><tspan x="48.94" y="0">c</tspan><tspan x="52.16" y="0">ts</tspan></text><text class="cls-17" transform="translate(17.44 106.93)">O<tspan x="4.94" y="0">ther</tspan></text><text class="cls-18" transform="translate(19.89 18.8)">Biomedical/Li<tspan x="39.71" y="0">f</tspan><tspan x="41.66" y="0">e </tspan><tspan x="46.65" y="0">S</tspan><tspan x="50.15" y="0">cien</tspan><tspan x="62.31" y="0">c</tspan><tspan x="65.41" y="0">es</tspan></text><path class="cls-19" d="M1564.61,6594.72c-2.79-1.48-11.63-4-11.63-4l-20.79,69.94,32.42-66" transform="translate(-1401.26 -6570.05)"/><text class="cls-20" transform="translate(150.71 186.66)">G<tspan x="4.56" y="0">ene</tspan><tspan x="15.46" y="0">r</tspan><tspan x="17.71" y="0">al (not indust</tspan><tspan x="56.16" y="0">r</tspan><tspan x="58.62" y="0">y specific)</tspan></text><text class="cls-21" transform="translate(24.05 166.64)">D<tspan x="4.69" y="0">e</tspan><tspan x="8.2" y="0">f</tspan><tspan x="10.15" y="0">ense/</tspan><tspan x="26.22" y="0">S</tspan><tspan x="29.72" y="0">ecu</tspan><tspan x="40.22" y="0">r</tspan><tspan x="42.53" y="0">i</tspan><tspan x="44.17" y="0">t</tspan><tspan x="46.55" y="0">y</tspan></text><line class="cls-22" x1="167.88" y1="35.95" x2="182.11" y2="16.68"/><line class="cls-23" x1="176.27" y1="42.47" x2="192.62" y2="29.53"/><line class="cls-24" x1="187.89" y1="50.11" x2="206.89" y2="41.73"/><line class="cls-25" x1="196.67" y1="92.46" x2="218.47" y2="90.65"/><line class="cls-26" x1="167.46" y1="146.99" x2="182.95" y2="164.17"/><line class="cls-27" x1="147.14" y1="158.09" x2="153.49" y2="177.08"/><line class="cls-28" x1="130.01" y1="158.09" x2="130.01" y2="178.75"/><line class="cls-29" x1="104.3" y1="151.4" x2="94.93" y2="171.94"/><line class="cls-30" x1="85.65" y1="140.32" x2="71.19" y2="159.72"/><line class="cls-31" x1="65.89" y1="99.32" x2="38.32" y2="104.7"/><path class="cls-32" d="M1577.92,6603.05a85.91,85.91,0,0,0-13.31-8.34l-32.42,66Z" transform="translate(-1401.26 -6570.05)"/><path class="cls-33" d="M1532.59,6660.71" transform="translate(-1401.26 -6570.05)"/><path class="cls-34" d="M1550.91,6589.36a69,69,0,0,0-18.78-2.63,74,74,0,0,0-71.93,91.3l72-17.33Z" transform="translate(-1401.26 -6570.05)"/><path class="cls-35" d="M1532.19,6660.71l-72,17.33a73.81,73.81,0,0,0,17.71,33Z" transform="translate(-1401.26 -6570.05)"/><path class="cls-36" d="M1477.9,6711a74.43,74.43,0,0,0,9,8.24l45.27-58.56Z" transform="translate(-1401.26 -6570.05)"/><path class="cls-37" d="M1532.19,6660.71l55.43-48.92-6.51-6.19c-1-.81-2-1.66-3.19-2.55Z" transform="translate(-1401.26 -6570.05)"/><path class="cls-38" d="M1486.92,6719.27a73.61,73.61,0,0,0,35.24,14.75l10-73.31Z" transform="translate(-1401.26 -6570.05)"/><path class="cls-39" d="M1522.15,6734a74.28,74.28,0,0,0,18.24.21l-8.21-73.52Z" transform="translate(-1401.26 -6570.05)"/><path class="cls-40" d="M1540.4,6734.22a73.53,73.53,0,0,0,18.29-4.45l-26.5-69.06Z" transform="translate(-1401.26 -6570.05)"/><path class="cls-41" d="M1558.69,6729.77a74.1,74.1,0,0,0,28.27-19.4l-54.77-49.66Z" transform="translate(-1401.26 -6570.05)"/><path class="cls-42" d="M1587,6710.37a73.71,73.71,0,0,0,19.15-49.66,75.1,75.1,0,0,0-9.88-36.5l-64,36.5Z" transform="translate(-1401.26 -6570.05)"/><path class="cls-43" d="M1596.22,6624.21a74.45,74.45,0,0,0-8.6-12.42l-55.43,48.92Z" transform="translate(-1401.26 -6570.05)"/><path class="cls-44" d="M1460.19,6678c-1.19-4.35-2-15.52-2-15.52l74-1.81Z" transform="translate(-1401.26 -6570.05)"/></svg>