<svg id="Layer_16" data-name="Layer 16" xmlns="http://www.w3.org/2000/svg" viewBox="0 0 538.68 181.6"><defs><style>.cls-1{fill:#ece6e2;}.cls-19,.cls-2{fill:#82745f;}.cls-18,.cls-3{fill:#c3b49b;}.cls-17,.cls-4{fill:#5a7d80;}.cls-16,.cls-5{fill:#90d0b9;}.cls-15,.cls-6{fill:#85b589;}.cls-14,.cls-7{fill:#4f7a6b;}.cls-13,.cls-8{fill:#7db2ac;}.cls-9{fill:#9fc9c5;}.cls-10,.cls-11{fill:#38beb4;}.cls-11,.cls-12,.cls-13,.cls-14,.cls-15,.cls-16,.cls-17,.cls-18,.cls-19,.cls-30{font-size:4.05px;}.cls-11,.cls-12,.cls-13,.cls-14,.cls-15,.cls-16,.cls-17,.cls-18,.cls-19,.cls-20,.cls-30{font-family:Myriad Pro;}.cls-12{fill:#9bbcb8;}.cls-20{font-size:8px;fill:#8f8272;font-weight:700;}.cls-21,.cls-22,.cls-23,.cls-24,.cls-25,.cls-26,.cls-27,.cls-28,.cls-29{fill:none;stroke-miterlimit:10;stroke-width:0.75px;}.cls-21{stroke:#c3b49b;}.cls-22{stroke:#82745f;}.cls-23{stroke:#38beb4;}.cls-24{stroke:#9fc9c5;}.cls-25{stroke:#7db2ac;}.cls-26{stroke:#4f7a6b;}.cls-27{stroke:#85b589;}.cls-28{stroke:#90d0b9;}.cls-29{stroke:#5a7d80;}.cls-30{fill:#3abcbc;}</style></defs><title>applications-int</title><rect class="cls-1" width="538.68" height="181.6"/><path class="cls-2" d="M1862.27,7106.36l-4.35-35.41a38.13,38.13,0,0,1,4.35-.27v35.67Z" transform="translate(-1743.63 -6996.46)"/><path class="cls-3" d="M1862.27,7106.36l-17.29-31.2a34,34,0,0,1,12.95-4.21Z" transform="translate(-1743.63 -6996.46)"/><path class="cls-4" d="M1862.27,7106.36l-33.73-11.61a33.88,33.88,0,0,1,16.44-19.59Z" transform="translate(-1743.63 -6996.46)"/><path class="cls-5" d="M1862.27,7106.36l-34.46,9.23a34.47,34.47,0,0,1,.73-20.85Z" transform="translate(-1743.63 -6996.46)"/><path class="cls-6" d="M1862.27,7106.36l-33.93,11c-0.18-.54-0.38-1.24-0.53-1.79Z" transform="translate(-1743.63 -6996.46)"/><path class="cls-7" d="M1862.27,7106.36l-11.61,33.73a34.41,34.41,0,0,1-22.31-22.71Z" transform="translate(-1743.63 -6996.46)"/><path class="cls-8" d="M1862.27,7106.36l8,34.76a34,34,0,0,1-19.64-1Z" transform="translate(-1743.63 -6996.46)"/><path class="cls-9" d="M1862.27,7106.36l28.49,21.47a34.29,34.29,0,0,1-20.47,13.29Z" transform="translate(-1743.63 -6996.46)"/><path class="cls-10" d="M1862.27,7106.36v-35.67a35.67,35.67,0,0,1,35.67,35.67,33.82,33.82,0,0,1-7.18,21.47Z" transform="translate(-1743.63 -6996.46)"/><text class="cls-11" transform="translate(158.41 94.92)">Ele<tspan x="4.98" y="0">c</tspan><tspan x="6.84" y="0">t</tspan><tspan x="8.18" y="0">r</tspan><tspan x="9.47" y="0">onics</tspan><tspan x="0" y="4.86">35.41%</tspan></text><text class="cls-12" transform="translate(140.77 149.8)">C<tspan x="2.3" y="0">onstru</tspan><tspan x="13.28" y="0">c</tspan><tspan x="15.14" y="0">tion</tspan><tspan x="0" y="4.86">11.10%</tspan></text><text class="cls-13" transform="translate(104.09 155.38)">C<tspan x="2.3" y="0">osmetics</tspan><tspan x="0" y="4.86">8.93%</tspan></text><text class="cls-14" transform="translate(72.62 144.79)">A<tspan x="2.43" y="0">u</tspan><tspan x="4.66" y="0">t</tspan><tspan x="5.98" y="0">om</tspan><tspan x="11.58" y="0">a</tspan><tspan x="13.52" y="0">ti</tspan><tspan x="15.8" y="0">v</tspan><tspan x="17.71" y="0">e</tspan><tspan x="0" y="4.86">14.80%</tspan></text><text class="cls-15" transform="translate(54.05 126.12)">Spo<tspan x="6.52" y="0">r</tspan><tspan x="7.95" y="0">ts/</tspan><tspan x="12.28" y="0">F</tspan><tspan x="14.15" y="0">itness</tspan><tspan x="0" y="4.86">0.73%</tspan></text><text class="cls-16" transform="translate(59.71 109.51)">T<tspan x="1.73" y="0">e</tspan><tspan x="3.74" y="0">x</tspan><tspan x="5.67" y="0">tile</tspan><tspan x="0" y="4.86">9.36%</tspan></text><text class="cls-17" transform="translate(54.33 83.87)">W<tspan x="3.29" y="0">a</tspan><tspan x="5.23" y="0">t</tspan><tspan x="6.54" y="0">er/</tspan><tspan x="11.29" y="0">W</tspan><tspan x="14.58" y="0">as</tspan><tspan x="18.14" y="0">t</tspan><tspan x="19.45" y="0">e</tspan><tspan x="21.48" y="0">wa</tspan><tspan x="26.38" y="0">t</tspan><tspan x="27.7" y="0">er</tspan><tspan x="0" y="4.86">11.83%</tspan></text><text class="cls-18" transform="translate(91.51 66.87)">P<tspan x="2.05" y="0">et</tspan><tspan x="5.42" y="0">r</tspan><tspan x="6.71" y="0">oleum</tspan><tspan x="0" y="4.86">6.10%</tspan></text><text class="cls-19" transform="translate(115.29 61.98)">Home <tspan x="11.13" y="0">A</tspan><tspan x="13.6" y="0">pplian</tspan><tspan x="24.31" y="0">c</tspan><tspan x="26.1" y="0">es</tspan><tspan x="0" y="4.86">1.74%</tspan></text><text class="cls-20" transform="translate(92.44 44.46)">Uni<tspan x="11.98" y="0">t</tspan><tspan x="14.74" y="0">ed </tspan><tspan x="25.2" y="0">S</tspan><tspan x="29.33" y="0">t</tspan><tspan x="32.14" y="0">at</tspan><tspan x="38.94" y="0">es</tspan></text><line class="cls-21" x1="109.09" y1="78.98" x2="104.92" y2="71.15"/><line class="cls-22" x1="116.52" y1="75.07" x2="116.29" y2="69.08"/><line class="cls-23" x1="147.57" y1="100.13" x2="157.02" y2="95.2"/><line class="cls-24" x1="136.32" y1="136.36" x2="142.39" y2="143.78"/><line class="cls-25" x1="116.41" y1="140.07" x2="116.41" y2="150.08"/><line class="cls-26" x1="98.48" y1="129.56" x2="90.37" y2="138.83"/><line class="cls-27" x1="87.72" y1="119.14" x2="78.48" y2="122.25"/><line class="cls-28" x1="85.47" y1="108.23" x2="74.22" y2="108.01"/><line class="cls-29" x1="99.31" y1="95.2" x2="87.72" y2="85.51"/><path class="cls-2" d="M2022.24,7106.5l-3.11-35.54c0.92-.08,2.18-0.14,3.11-0.14v35.67Z" transform="translate(-1743.63 -6996.46)"/><path class="cls-3" d="M2022.24,7106.5l-34.89-7.42a35.15,35.15,0,0,1,31.79-28.12Z" transform="translate(-1743.63 -6996.46)"/><path class="cls-4" d="M2022.24,7106.5l-35.13-6.19c0.08-.45.14-0.78,0.24-1.22Z" transform="translate(-1743.63 -6996.46)"/><path class="cls-5" d="M2022.24,7106.5l-35.48-3.73c0.1-.92.19-1.55,0.35-2.47Z" transform="translate(-1743.63 -6996.46)"/><path class="cls-6" d="M2022.24,7106.5l-5.58,35.23a35.65,35.65,0,0,1-29.9-39Z" transform="translate(-1743.63 -6996.46)"/><path class="cls-7" d="M2022.24,7106.5l7.42,34.89a33.71,33.71,0,0,1-13,.34Z" transform="translate(-1743.63 -6996.46)"/><path class="cls-8" d="M2022.24,7106.5l2.49-35.59a35.67,35.67,0,0,1,33.1,38.08,35.15,35.15,0,0,1-28.17,32.41Z" transform="translate(-1743.63 -6996.46)"/><path class="cls-9" d="M2022.24,7106.5v-35.67c0.93,0,1.56,0,2.49.09Z" transform="translate(-1743.63 -6996.46)"/><text class="cls-12" transform="translate(284.97 67)">C<tspan x="2.3" y="0">onstru</tspan><tspan x="13.28" y="0">c</tspan><tspan x="15.14" y="0">tion</tspan><tspan x="0" y="4.86">1.18%</tspan></text><text class="cls-30" transform="translate(319.03 94.4)">C<tspan x="2.3" y="0">osmetics</tspan><tspan x="0" y="4.86">45.59%</tspan></text><text class="cls-14" transform="translate(276.17 156.4)">A<tspan x="2.43" y="0">u</tspan><tspan x="4.66" y="0">t</tspan><tspan x="5.98" y="0">om</tspan><tspan x="11.58" y="0">a</tspan><tspan x="13.52" y="0">ti</tspan><tspan x="15.8" y="0">v</tspan><tspan x="17.71" y="0">e</tspan><tspan x="0" y="4.86">5.88%</tspan></text><text class="cls-15" transform="translate(214.02 126.26)">Spo<tspan x="6.52" y="0">r</tspan><tspan x="7.95" y="0">ts/</tspan><tspan x="12.28" y="0">F</tspan><tspan x="14.15" y="0">itness</tspan><tspan x="0" y="4.86">24.12%</tspan></text><text class="cls-16" transform="translate(221.81 105.6)">T<tspan x="1.73" y="0">e</tspan><tspan x="3.74" y="0">x</tspan><tspan x="5.67" y="0">tile</tspan><tspan x="0" y="4.86">1.18%</tspan></text><text class="cls-17" transform="translate(214.8 95.06)">W<tspan x="3.29" y="0">a</tspan><tspan x="5.23" y="0">t</tspan><tspan x="6.54" y="0">er/</tspan><tspan x="11.29" y="0">W</tspan><tspan x="14.58" y="0">as</tspan><tspan x="18.14" y="0">t</tspan><tspan x="19.45" y="0">e</tspan><tspan x="21.48" y="0">wa</tspan><tspan x="26.38" y="0">t</tspan><tspan x="27.7" y="0">er</tspan><tspan x="0" y="4.86">0.59%</tspan></text><text class="cls-18" transform="translate(249.35 66.86)">P<tspan x="2.05" y="0">et</tspan><tspan x="5.42" y="0">r</tspan><tspan x="6.71" y="0">oleum</tspan><tspan x="0" y="4.86">20.29%</tspan></text><text class="cls-19" transform="translate(268.57 60.1)">Home <tspan x="11.13" y="0">A</tspan><tspan x="13.6" y="0">pplian</tspan><tspan x="24.31" y="0">c</tspan><tspan x="26.1" y="0">es</tspan><tspan x="0" y="4.86">1.18%</tspan></text><text class="cls-20" transform="translate(252.24 44.46)">Uni<tspan x="11.98" y="0">t</tspan><tspan x="14.74" y="0">ed </tspan><tspan x="25.2" y="0">K</tspan><tspan x="29.9" y="0">ingdom</tspan></text><line class="cls-21" x1="269.06" y1="79.12" x2="264.89" y2="71.29"/><line class="cls-22" x1="276.49" y1="75.21" x2="276.26" y2="69.22"/><line class="cls-23" x1="307.54" y1="100.27" x2="316.99" y2="95.34"/><line class="cls-26" x1="280.52" y1="143.51" x2="280.79" y2="150.43"/><line class="cls-27" x1="247.69" y1="119.28" x2="238.45" y2="122.39"/><line class="cls-28" x1="246.09" y1="105.58" x2="234.5" y2="104.75"/><line class="cls-29" x1="246.39" y1="103.71" x2="236.57" y2="101.38"/><line class="cls-24" x1="279.11" y1="77.76" x2="282.47" y2="71.09"/><path class="cls-2" d="M2176.81,7106.13l-11.61-33.73a34.75,34.75,0,0,1,11.61-1.94v35.67Z" transform="translate(-1743.63 -6996.46)"/><path class="cls-3" d="M2176.81,7106.13l-12.2-33.52,0.59-.21Z" transform="translate(-1743.63 -6996.46)"/><path class="cls-4" d="M2176.81,7106.13l-19.95-29.57a34.89,34.89,0,0,1,7.75-3.95Z" transform="translate(-1743.63 -6996.46)"/><path class="cls-5" d="M2176.81,7106.13l-29.92-19.43a33.28,33.28,0,0,1,10-10.15Z" transform="translate(-1743.63 -6996.46)"/><path class="cls-7" d="M2176.81,7106.13l-21,28.86a35.71,35.71,0,0,1-9-48.29Z" transform="translate(-1743.63 -6996.46)"/><path class="cls-8" d="M2176.81,7106.13l9.83,34.29a34.58,34.58,0,0,1-30.8-5.43Z" transform="translate(-1743.63 -6996.46)"/><path class="cls-9" d="M2176.81,7106.13l24.33-26.09a35.67,35.67,0,0,1,1.76,50.42,33.85,33.85,0,0,1-16.26,10Z" transform="translate(-1743.63 -6996.46)"/><path class="cls-10" d="M2176.81,7106.13v-35.67a34.11,34.11,0,0,1,24.33,9.58Z" transform="translate(-1743.63 -6996.46)"/><text class="cls-11" transform="translate(448.99 65.97)">Ele<tspan x="4.98" y="0">c</tspan><tspan x="6.84" y="0">t</tspan><tspan x="8.18" y="0">r</tspan><tspan x="9.47" y="0">onics</tspan><tspan x="0" y="4.86">12.03%</tspan></text><text class="cls-12" transform="translate(473.6 94.03)">C<tspan x="2.3" y="0">onstru</tspan><tspan x="13.28" y="0">c</tspan><tspan x="15.14" y="0">tion</tspan><tspan x="0" y="4.86">33.68%</tspan></text><text class="cls-13" transform="translate(430.75 156.04)">C<tspan x="2.3" y="0">osmetics</tspan><tspan x="0" y="4.86">14.43%</tspan></text><text class="cls-14" transform="translate(369.94 125.89)">A<tspan x="2.43" y="0">u</tspan><tspan x="4.66" y="0">t</tspan><tspan x="5.98" y="0">om</tspan><tspan x="11.58" y="0">a</tspan><tspan x="13.52" y="0">ti</tspan><tspan x="15.8" y="0">v</tspan><tspan x="17.71" y="0">e</tspan><tspan x="0" y="4.86">24.05%</tspan></text><text class="cls-16" transform="translate(383.12 85.72)">T<tspan x="1.73" y="0">e</tspan><tspan x="3.74" y="0">x</tspan><tspan x="5.67" y="0">tile</tspan><tspan x="0" y="4.86">6.53%</tspan></text><text class="cls-18" transform="translate(402.6 59.97)">P<tspan x="2.05" y="0">et</tspan><tspan x="5.42" y="0">r</tspan><tspan x="6.71" y="0">oleum</tspan><tspan x="0" y="4.86">0.34%</tspan></text><text class="cls-19" transform="translate(423.14 59.73)">Home <tspan x="11.13" y="0">A</tspan><tspan x="13.6" y="0">pplian</tspan><tspan x="24.31" y="0">c</tspan><tspan x="26.1" y="0">es</tspan><tspan x="0" y="4.86">5.15%</tspan></text><text class="cls-20" transform="translate(417.83 44.46)">G<tspan x="5.38" y="0">erma</tspan><tspan x="23.24" y="0">n</tspan><tspan x="27.7" y="0">y</tspan></text><line class="cls-22" x1="431.06" y1="74.84" x2="430.84" y2="68.86"/><line class="cls-24" x1="462.11" y1="99.91" x2="471.56" y2="94.97"/><line class="cls-25" x1="435.09" y1="143.15" x2="435.36" y2="150.06"/><line class="cls-26" x1="402.26" y1="118.92" x2="393.02" y2="122.03"/><line class="cls-28" x1="412.66" y1="94.18" x2="396.88" y2="85.6"/><line class="cls-23" x1="443.57" y1="84.73" x2="451.22" y2="73.27"/><text class="cls-17" transform="translate(380.39 71.78)">W<tspan x="3.29" y="0">a</tspan><tspan x="5.23" y="0">t</tspan><tspan x="6.54" y="0">er/</tspan><tspan x="11.29" y="0">W</tspan><tspan x="14.58" y="0">as</tspan><tspan x="18.14" y="0">t</tspan><tspan x="19.45" y="0">e</tspan><tspan x="21.48" y="0">wa</tspan><tspan x="26.38" y="0">t</tspan><tspan x="27.7" y="0">er</tspan><tspan x="0" y="4.86">3.78%</tspan></text><line class="cls-29" x1="418.37" y1="81.13" x2="413.64" y2="72.36"/><line class="cls-21" x1="421.52" y1="76.74" x2="417.75" y2="65.1"/></svg>