<svg id="Layer_16" data-name="Layer 16" xmlns="http://www.w3.org/2000/svg" viewBox="0 0 441.45 124.51"><defs><style>.cls-1,.cls-19{fill:#82745f;}.cls-18,.cls-2{fill:#c3b49b;}.cls-17,.cls-3{fill:#5a7d80;}.cls-16,.cls-4{fill:#90d0b9;}.cls-15,.cls-5{fill:#85b589;}.cls-14,.cls-6{fill:#4f7a6b;}.cls-13,.cls-7{fill:#7db2ac;}.cls-8{fill:#9fc9c5;}.cls-11,.cls-9{fill:#38beb4;}.cls-10,.cls-11,.cls-12,.cls-13,.cls-14,.cls-15,.cls-16,.cls-17,.cls-18,.cls-19,.cls-20,.cls-30{isolation:isolate;}.cls-11,.cls-12,.cls-13,.cls-14,.cls-15,.cls-16,.cls-17,.cls-18,.cls-19,.cls-30{font-size:4.05px;}.cls-11,.cls-12,.cls-13,.cls-14,.cls-15,.cls-16,.cls-17,.cls-18,.cls-19,.cls-20,.cls-30{font-family:Myriad Pro;}.cls-12{fill:#9bbcb8;}.cls-20{font-size:8px;fill:#8f8272;font-weight:700;}.cls-21,.cls-22,.cls-23,.cls-24,.cls-25,.cls-26,.cls-27,.cls-28,.cls-29{fill:none;stroke-miterlimit:10;stroke-width:0.75px;}.cls-21{stroke:#c3b49b;}.cls-22{stroke:#82745f;}.cls-23{stroke:#38beb4;}.cls-24{stroke:#9fc9c5;}.cls-25{stroke:#7db2ac;}.cls-26{stroke:#4f7a6b;}.cls-27{stroke:#85b589;}.cls-28{stroke:#90d0b9;}.cls-29{stroke:#5a7d80;}.cls-30{fill:#3abcbc;}</style></defs><title>applications-int2</title><path class="cls-1" d="M118.64,388.65l-4.35-35.41a38.1,38.1,0,0,1,4.35-.27v35.67h0Z" transform="translate(-54.05 -316.51)"/><path class="cls-2" d="M118.64,388.65l-17.29-31.2a34,34,0,0,1,12.95-4.21Z" transform="translate(-54.05 -316.51)"/><path class="cls-3" d="M118.64,388.65L84.91,377a33.88,33.88,0,0,1,16.44-19.59Z" transform="translate(-54.05 -316.51)"/><path class="cls-4" d="M118.64,388.65l-34.46,9.23A34.47,34.47,0,0,1,84.91,377Z" transform="translate(-54.05 -316.51)"/><path class="cls-5" d="M118.64,388.65l-33.93,11c-0.18-.54-0.38-1.24-0.53-1.79Z" transform="translate(-54.05 -316.51)"/><path class="cls-6" d="M118.64,388.65L107,422.38a34.41,34.41,0,0,1-22.31-22.71Z" transform="translate(-54.05 -316.51)"/><path class="cls-7" d="M118.64,388.65l8,34.76a34,34,0,0,1-19.64-1Z" transform="translate(-54.05 -316.51)"/><path class="cls-8" d="M118.64,388.65l28.49,21.47a34.29,34.29,0,0,1-20.47,13.29Z" transform="translate(-54.05 -316.51)"/><path class="cls-9" d="M118.64,388.65V353a35.67,35.67,0,0,1,35.67,35.67,33.82,33.82,0,0,1-7.18,21.47Z" transform="translate(-54.05 -316.51)"/><g class="cls-10"><text class="cls-11" transform="translate(104.36 57.16)">Ele</text><text class="cls-11" transform="translate(109.34 57.16)">c</text><text class="cls-11" transform="translate(111.2 57.16)">t</text><text class="cls-11" transform="translate(112.54 57.16)">r</text><text class="cls-11" transform="translate(113.83 57.16)">onics</text><text class="cls-11" transform="translate(104.36 62.02)">35.41%</text></g><g class="cls-10"><text class="cls-12" transform="translate(86.72 112.04)">C</text><text class="cls-12" transform="translate(89.02 112.04)">onstru</text><text class="cls-12" transform="translate(100 112.04)">c</text><text class="cls-12" transform="translate(101.86 112.04)">tion</text><text class="cls-12" transform="translate(86.72 116.9)">11.10%</text></g><g class="cls-10"><text class="cls-13" transform="translate(50.04 117.62)">C</text><text class="cls-13" transform="translate(52.34 117.62)">osmetics</text><text class="cls-13" transform="translate(50.04 122.48)">8.93%</text></g><g class="cls-10"><text class="cls-14" transform="translate(18.57 107.03)">A</text><text class="cls-14" transform="translate(21 107.03)">u</text><text class="cls-14" transform="translate(23.23 107.03)">t</text><text class="cls-14" transform="translate(24.55 107.03)">om</text><text class="cls-14" transform="translate(30.15 107.03)">a</text><text class="cls-14" transform="translate(32.09 107.03)">ti</text><text class="cls-14" transform="translate(34.37 107.03)">v</text><text class="cls-14" transform="translate(36.28 107.03)">e</text><text class="cls-14" transform="translate(18.57 111.89)">14.80%</text></g><g class="cls-10"><text class="cls-15" transform="translate(0 88.36)">Spo</text><text class="cls-15" transform="translate(6.52 88.36)">r</text><text class="cls-15" transform="translate(7.95 88.36)">ts/</text><text class="cls-15" transform="translate(12.28 88.36)">F</text><text class="cls-15" transform="translate(14.15 88.36)">itness</text><text class="cls-15" transform="translate(0 93.22)">0.73%</text></g><g class="cls-10"><text class="cls-16" transform="translate(5.66 71.75)">T</text><text class="cls-16" transform="translate(7.39 71.75)">e</text><text class="cls-16" transform="translate(9.4 71.75)">x</text><text class="cls-16" transform="translate(11.33 71.75)">tile</text><text class="cls-16" transform="translate(5.66 76.61)">9.36%</text></g><g class="cls-10"><text class="cls-17" transform="translate(0.28 46.11)">W</text><text class="cls-17" transform="translate(3.57 46.11)">a</text><text class="cls-17" transform="translate(5.51 46.11)">t</text><text class="cls-17" transform="translate(6.82 46.11)">er/</text><text class="cls-17" transform="translate(11.57 46.11)">W</text><text class="cls-17" transform="translate(14.86 46.11)">as</text><text class="cls-17" transform="translate(18.42 46.11)">t</text><text class="cls-17" transform="translate(19.73 46.11)">e</text><text class="cls-17" transform="translate(21.76 46.11)">w<tspan x="2.96" y="0">a</tspan></text><text class="cls-17" transform="translate(26.66 46.11)">t</text><text class="cls-17" transform="translate(27.98 46.11)">er</text><text class="cls-17" transform="translate(0.28 50.97)">11.83%</text></g><g class="cls-10"><text class="cls-18" transform="translate(37.46 29.11)">P</text><text class="cls-18" transform="translate(39.51 29.11)">et</text><text class="cls-18" transform="translate(42.88 29.11)">r</text><text class="cls-18" transform="translate(44.17 29.11)">oleum</text><text class="cls-18" transform="translate(37.46 33.97)">6.10%</text></g><g class="cls-10"><text class="cls-19" transform="translate(61.24 24.22)">Home </text><text class="cls-19" transform="translate(72.37 24.22)">A</text><text class="cls-19" transform="translate(74.84 24.22)">pplian</text><text class="cls-19" transform="translate(85.55 24.22)">c</text><text class="cls-19" transform="translate(87.34 24.22)">es</text><text class="cls-19" transform="translate(61.24 29.08)">1.74%</text></g><g class="cls-10"><text class="cls-20" transform="translate(38.39 6.7)">Uni</text><text class="cls-20" transform="translate(50.37 6.7)">t</text><text class="cls-20" transform="translate(53.13 6.7)">ed </text><text class="cls-20" transform="translate(63.59 6.7)">S</text><text class="cls-20" transform="translate(67.72 6.7)">t</text><text class="cls-20" transform="translate(70.53 6.7)">a<tspan x="4.16" y="0">t</tspan></text><text class="cls-20" transform="translate(77.33 6.7)">es</text></g><line class="cls-21" x1="55.04" y1="41.22" x2="50.87" y2="33.39"/><line class="cls-22" x1="62.47" y1="37.31" x2="62.24" y2="31.32"/><line class="cls-23" x1="93.52" y1="62.37" x2="102.97" y2="57.44"/><line class="cls-24" x1="82.27" y1="98.6" x2="88.34" y2="106.02"/><line class="cls-25" x1="62.36" y1="102.31" x2="62.36" y2="112.32"/><line class="cls-26" x1="44.43" y1="91.8" x2="36.32" y2="101.07"/><line class="cls-27" x1="33.67" y1="81.38" x2="24.43" y2="84.49"/><line class="cls-28" x1="31.42" y1="70.47" x2="20.17" y2="70.25"/><line class="cls-29" x1="45.26" y1="57.44" x2="33.67" y2="47.75"/><path class="cls-1" d="M278.61,388.79l-3.11-35.54c0.92-.08,2.18-0.14,3.11-0.14v35.67h0Z" transform="translate(-54.05 -316.51)"/><path class="cls-2" d="M278.61,388.79l-34.89-7.42a35.15,35.15,0,0,1,31.79-28.12Z" transform="translate(-54.05 -316.51)"/><path class="cls-3" d="M278.61,388.79l-35.13-6.19c0.08-.45.14-0.78,0.24-1.22Z" transform="translate(-54.05 -316.51)"/><path class="cls-4" d="M278.61,388.79l-35.48-3.73c0.1-.92.19-1.55,0.35-2.47Z" transform="translate(-54.05 -316.51)"/><path class="cls-5" d="M278.61,388.79L273,424a35.65,35.65,0,0,1-29.9-39Z" transform="translate(-54.05 -316.51)"/><path class="cls-6" d="M278.61,388.79L286,423.68a33.71,33.71,0,0,1-13,.34Z" transform="translate(-54.05 -316.51)"/><path class="cls-7" d="M278.61,388.79l2.49-35.59a35.67,35.67,0,0,1,33.1,38.07h0A35.15,35.15,0,0,1,286,423.69Z" transform="translate(-54.05 -316.51)"/><path class="cls-8" d="M278.61,388.79V353.12a23.06,23.06,0,0,1,2.49.09Z" transform="translate(-54.05 -316.51)"/><g class="cls-10"><text class="cls-12" transform="translate(230.92 29.24)">C</text><text class="cls-12" transform="translate(233.22 29.24)">onstru</text><text class="cls-12" transform="translate(244.2 29.24)">c</text><text class="cls-12" transform="translate(246.06 29.24)">tion</text><text class="cls-12" transform="translate(230.92 34.1)">1.18%</text></g><g class="cls-10"><text class="cls-30" transform="translate(264.98 56.64)">C</text><text class="cls-30" transform="translate(267.28 56.64)">osmetics</text><text class="cls-30" transform="translate(264.98 61.5)">45.59%</text></g><g class="cls-10"><text class="cls-14" transform="translate(222.12 118.64)">A</text><text class="cls-14" transform="translate(224.55 118.64)">u</text><text class="cls-14" transform="translate(226.78 118.64)">t</text><text class="cls-14" transform="translate(228.1 118.64)">om</text><text class="cls-14" transform="translate(233.7 118.64)">a</text><text class="cls-14" transform="translate(235.64 118.64)">ti</text><text class="cls-14" transform="translate(237.92 118.64)">v</text><text class="cls-14" transform="translate(239.83 118.64)">e</text><text class="cls-14" transform="translate(222.12 123.5)">5.88%</text></g><g class="cls-10"><text class="cls-15" transform="translate(159.97 88.5)">Spo</text><text class="cls-15" transform="translate(166.49 88.5)">r</text><text class="cls-15" transform="translate(167.92 88.5)">ts/</text><text class="cls-15" transform="translate(172.25 88.5)">F</text><text class="cls-15" transform="translate(174.12 88.5)">itness</text><text class="cls-15" transform="translate(159.97 93.36)">24.12%</text></g><g class="cls-10"><text class="cls-16" transform="translate(167.76 67.84)">T</text><text class="cls-16" transform="translate(169.49 67.84)">e</text><text class="cls-16" transform="translate(171.5 67.84)">x</text><text class="cls-16" transform="translate(173.43 67.84)">tile</text><text class="cls-16" transform="translate(167.76 72.7)">1.18%</text></g><g class="cls-10"><text class="cls-17" transform="translate(160.75 57.3)">W</text><text class="cls-17" transform="translate(164.04 57.3)">a</text><text class="cls-17" transform="translate(165.98 57.3)">t</text><text class="cls-17" transform="translate(167.29 57.3)">er/</text><text class="cls-17" transform="translate(172.04 57.3)">W</text><text class="cls-17" transform="translate(175.33 57.3)">as</text><text class="cls-17" transform="translate(178.89 57.3)">t</text><text class="cls-17" transform="translate(180.2 57.3)">e</text><text class="cls-17" transform="translate(182.23 57.3)">w<tspan x="2.96" y="0">a</tspan></text><text class="cls-17" transform="translate(187.13 57.3)">t</text><text class="cls-17" transform="translate(188.45 57.3)">er</text><text class="cls-17" transform="translate(160.75 62.16)">0.59%</text></g><g class="cls-10"><text class="cls-18" transform="translate(195.3 29.1)">P</text><text class="cls-18" transform="translate(197.35 29.1)">et</text><text class="cls-18" transform="translate(200.72 29.1)">r</text><text class="cls-18" transform="translate(202.01 29.1)">oleum</text><text class="cls-18" transform="translate(195.3 33.96)">20.29%</text></g><g class="cls-10"><text class="cls-19" transform="translate(214.52 22.34)">Home </text><text class="cls-19" transform="translate(225.65 22.34)">A</text><text class="cls-19" transform="translate(228.12 22.34)">pplian</text><text class="cls-19" transform="translate(238.83 22.34)">c</text><text class="cls-19" transform="translate(240.62 22.34)">es</text><text class="cls-19" transform="translate(214.52 27.2)">1.18%</text></g><g class="cls-10"><text class="cls-20" transform="translate(198.19 6.7)">Uni</text><text class="cls-20" transform="translate(210.17 6.7)">t</text><text class="cls-20" transform="translate(212.93 6.7)">ed </text><text class="cls-20" transform="translate(223.39 6.7)">K</text><text class="cls-20" transform="translate(228.09 6.7)">ingdom</text></g><line class="cls-21" x1="215.01" y1="41.36" x2="210.84" y2="33.53"/><line class="cls-22" x1="222.44" y1="37.45" x2="222.21" y2="31.46"/><line class="cls-23" x1="253.49" y1="62.51" x2="262.94" y2="57.58"/><line class="cls-26" x1="226.47" y1="105.75" x2="226.74" y2="112.67"/><line class="cls-27" x1="193.64" y1="81.52" x2="184.4" y2="84.63"/><line class="cls-28" x1="192.04" y1="67.82" x2="180.45" y2="66.99"/><line class="cls-29" x1="192.34" y1="65.95" x2="182.52" y2="63.62"/><line class="cls-24" x1="225.06" y1="40" x2="228.42" y2="33.33"/><path class="cls-1" d="M433.18,388.42l-11.61-33.73a34.75,34.75,0,0,1,11.61-1.94v35.67Z" transform="translate(-54.05 -316.51)"/><path class="cls-2" d="M433.18,388.42L421,354.9l0.59-.21Z" transform="translate(-54.05 -316.51)"/><path class="cls-3" d="M433.18,388.42l-19.95-29.57a34.89,34.89,0,0,1,7.75-4Z" transform="translate(-54.05 -316.51)"/><path class="cls-4" d="M433.18,388.42L403.26,369a33.28,33.28,0,0,1,10-10.15Z" transform="translate(-54.05 -316.51)"/><path class="cls-6" d="M433.18,388.42l-21,28.86a35.71,35.71,0,0,1-9-48.29Z" transform="translate(-54.05 -316.51)"/><path class="cls-7" d="M433.18,388.42L443,422.71a34.58,34.58,0,0,1-30.8-5.43Z" transform="translate(-54.05 -316.51)"/><path class="cls-8" d="M433.18,388.42l24.33-26.09a35.67,35.67,0,0,1,1.77,50.41h0a33.85,33.85,0,0,1-16.26,10Z" transform="translate(-54.05 -316.51)"/><path class="cls-9" d="M433.18,388.42V352.75a34.11,34.11,0,0,1,24.33,9.58Z" transform="translate(-54.05 -316.51)"/><g class="cls-10"><text class="cls-11" transform="translate(394.94 28.21)">Ele</text><text class="cls-11" transform="translate(399.92 28.21)">c</text><text class="cls-11" transform="translate(401.78 28.21)">t</text><text class="cls-11" transform="translate(403.12 28.21)">r</text><text class="cls-11" transform="translate(404.41 28.21)">onics</text><text class="cls-11" transform="translate(394.94 33.07)">12.03%</text></g><g class="cls-10"><text class="cls-12" transform="translate(419.55 56.27)">C</text><text class="cls-12" transform="translate(421.85 56.27)">onstru</text><text class="cls-12" transform="translate(432.83 56.27)">c</text><text class="cls-12" transform="translate(434.69 56.27)">tion</text><text class="cls-12" transform="translate(419.55 61.13)">33.68%</text></g><g class="cls-10"><text class="cls-13" transform="translate(376.7 118.28)">C</text><text class="cls-13" transform="translate(379 118.28)">osmetics</text><text class="cls-13" transform="translate(376.7 123.14)">14.43%</text></g><g class="cls-10"><text class="cls-14" transform="translate(315.89 88.13)">A</text><text class="cls-14" transform="translate(318.32 88.13)">u</text><text class="cls-14" transform="translate(320.55 88.13)">t</text><text class="cls-14" transform="translate(321.87 88.13)">om</text><text class="cls-14" transform="translate(327.47 88.13)">a</text><text class="cls-14" transform="translate(329.41 88.13)">ti</text><text class="cls-14" transform="translate(331.69 88.13)">v</text><text class="cls-14" transform="translate(333.6 88.13)">e</text><text class="cls-14" transform="translate(315.89 92.99)">24.05%</text></g><g class="cls-10"><text class="cls-16" transform="translate(329.07 47.96)">T</text><text class="cls-16" transform="translate(330.8 47.96)">e</text><text class="cls-16" transform="translate(332.81 47.96)">x</text><text class="cls-16" transform="translate(334.74 47.96)">tile</text><text class="cls-16" transform="translate(329.07 52.82)">6.53%</text></g><g class="cls-10"><text class="cls-18" transform="translate(348.55 22.21)">P</text><text class="cls-18" transform="translate(350.6 22.21)">et</text><text class="cls-18" transform="translate(353.97 22.21)">r</text><text class="cls-18" transform="translate(355.26 22.21)">oleum</text><text class="cls-18" transform="translate(348.55 27.07)">0.34%</text></g><g class="cls-10"><text class="cls-19" transform="translate(369.09 21.97)">Home </text><text class="cls-19" transform="translate(380.22 21.97)">A</text><text class="cls-19" transform="translate(382.69 21.97)">pplian</text><text class="cls-19" transform="translate(393.4 21.97)">c</text><text class="cls-19" transform="translate(395.19 21.97)">es</text><text class="cls-19" transform="translate(369.09 26.83)">5.15%</text></g><g class="cls-10"><text class="cls-20" transform="translate(363.78 6.7)">G</text><text class="cls-20" transform="translate(369.16 6.7)">erma</text><text class="cls-20" transform="translate(387.02 6.7)">n</text><text class="cls-20" transform="translate(391.48 6.7)">y</text></g><line class="cls-22" x1="377.01" y1="37.08" x2="376.79" y2="31.1"/><line class="cls-24" x1="408.06" y1="62.15" x2="417.51" y2="57.21"/><line class="cls-25" x1="381.04" y1="105.39" x2="381.31" y2="112.3"/><line class="cls-26" x1="348.21" y1="81.16" x2="338.97" y2="84.27"/><line class="cls-28" x1="358.61" y1="56.42" x2="342.83" y2="47.84"/><line class="cls-23" x1="389.52" y1="46.97" x2="397.17" y2="35.51"/><g class="cls-10"><text class="cls-17" transform="translate(326.34 34.02)">W</text><text class="cls-17" transform="translate(329.63 34.02)">a</text><text class="cls-17" transform="translate(331.57 34.02)">t</text><text class="cls-17" transform="translate(332.88 34.02)">er/</text><text class="cls-17" transform="translate(337.63 34.02)">W</text><text class="cls-17" transform="translate(340.92 34.02)">as</text><text class="cls-17" transform="translate(344.48 34.02)">t</text><text class="cls-17" transform="translate(345.79 34.02)">e</text><text class="cls-17" transform="translate(347.82 34.02)">w<tspan x="2.96" y="0">a</tspan></text><text class="cls-17" transform="translate(352.72 34.02)">t</text><text class="cls-17" transform="translate(354.04 34.02)">er</text><text class="cls-17" transform="translate(326.34 38.88)">3.78%</text></g><line class="cls-29" x1="364.32" y1="43.37" x2="359.59" y2="34.6"/><line class="cls-21" x1="367.47" y1="38.98" x2="363.7" y2="27.34"/></svg>