<svg id="hair_nano" xmlns="http://www.w3.org/2000/svg" viewBox="0 0 260.73 32"><defs><style>.cls-1,.cls-5{fill:none;stroke-miterlimit:10;}.cls-1{stroke:#231f20;}.cls-2{font-size:4.48px;}.cls-2,.cls-4{fill:#231f20;}.cls-2,.cls-3,.cls-4{font-family:Akzidenz Grotesk;font-weight:700;}.cls-3{font-size:7.83px;fill:#3abeb4;}.cls-4{font-size:5.22px;}.cls-5{stroke:#3abeb4;}</style></defs><title>nanoscale2</title><polyline class="cls-1" points="250.67 0 250.67 7.83 22.04 7.83 22.04 0"/><line class="cls-1" x1="45.07" y1="7.83" x2="45.07"/><line class="cls-1" x1="67.95" y1="7.83" x2="67.95"/><line class="cls-1" x1="90.82" y1="7.83" x2="90.82"/><line class="cls-1" x1="113.7" y1="7.83" x2="113.7"/><line class="cls-1" x1="136.36" y1="7.83" x2="136.36"/><line class="cls-1" x1="159.21" y1="7.83" x2="159.21"/><line class="cls-1" x1="182.08" y1="7.83" x2="182.08"/><line class="cls-1" x1="204.96" y1="7.83" x2="204.96"/><line class="cls-1" x1="227.84" y1="7.83" x2="227.84"/><text class="cls-2" transform="translate(21.38 13.13)">10</text><text class="cls-2" transform="translate(26.36 11.64) scale(0.58)">-10</text><text class="cls-2" transform="translate(42.46 13.13)">10</text><text class="cls-2" transform="translate(47.44 11.64) scale(0.58)">-9</text><text class="cls-2" transform="translate(64.84 13.13)">10</text><text class="cls-2" transform="translate(69.82 11.64) scale(0.58)">-8</text><text class="cls-2" transform="translate(87.4 13.13)">10</text><text class="cls-2" transform="translate(92.38 11.64) scale(0.58)">-7</text><text class="cls-2" transform="translate(110.16 13.13)">10</text><text class="cls-2" transform="translate(115.13 11.64) scale(0.58)">-6</text><text class="cls-2" transform="translate(133.75 13.13)">10</text><text class="cls-2" transform="translate(138.73 11.64) scale(0.58)">-5</text><text class="cls-2" transform="translate(155.29 13.13)">10</text><text class="cls-2" transform="translate(160.27 11.64) scale(0.58)">-4</text><text class="cls-2" transform="translate(177.95 13.13)">10</text><text class="cls-2" transform="translate(182.93 11.64) scale(0.58)">-3</text><text class="cls-2" transform="translate(201.26 13.13)">10</text><text class="cls-2" transform="translate(206.24 11.64) scale(0.58)">-2</text><text class="cls-2" transform="translate(223.73 13.13)">10</text><text class="cls-2" transform="translate(228.71 11.64) scale(0.58)">-1</text><text class="cls-2" transform="translate(243.88 13.13)">10</text><text class="cls-2" transform="translate(248.85 11.64) scale(0.58)">-0</text><text class="cls-3" transform="translate(30.44 28.78) scale(0.58)">nanometer (nm)</text><text class="cls-4" transform="translate(102.08 28.84) scale(0.58)">micrometer (µm)</text><text class="cls-4" transform="translate(172.44 28.84) scale(0.58)">millimeter (mm)</text><text class="cls-4" transform="translate(239.03 28.83) scale(0.58)">meter (m)</text><line class="cls-5" x1="45.07" y1="23.87" x2="45.07" y2="15.42"/><text class="cls-4" transform="translate(5.89 28.54) scale(0.58)">angstrom (Å)</text></svg>