<svg xmlns="http://www.w3.org/2000/svg" viewBox="0 0 72.21 57.25"><defs><style>.cls-1{fill:#03f;}</style></defs><title>Asset 6</title><g id="Layer_2" data-name="Layer 2"><g id="Layer_2-2" data-name="Layer 2"><path class="cls-1" d="M4,15.83l0,0-.16-.29v0a.05.05,0,0,1,0,0,2.63,2.63,0,0,0,.33-.2A1,1,0,0,0,4.39,15a.8.8,0,0,0,.1-.36,1,1,0,0,0-.13-.46L1.42,8.71a.91.91,0,0,0-.22-.28.75.75,0,0,0-.28-.11.89.89,0,0,0-.32,0,2.05,2.05,0,0,0-.37.13s-.05,0-.06,0L0,8.17A0,0,0,0,1,0,8.1L3.23,6.37h0l0,0,.16.29s0,0,0,.06a1.57,1.57,0,0,0-.3.2.67.67,0,0,0-.2.25.61.61,0,0,0-.06.33A.9.9,0,0,0,3,8l1.21,2.24s0,.05,0,.06l.08,0L8.13,8.18s.06,0,.06,0,0,0,0-.08L6.92,5.73a.48.48,0,0,0-.29-.25,1.08,1.08,0,0,0-.41,0,2.93,2.93,0,0,0-.45.11l-.41.16s-.05,0-.07,0L5.13,5.4s0-.05,0-.06l3.61-2h.05l0,0L9,3.7s0,0,0,0a2.23,2.23,0,0,0-.3.2,1.13,1.13,0,0,0-.22.27.67.67,0,0,0-.07.33A1,1,0,0,0,8.51,5l2.9,5.37a.84.84,0,0,0,.18.23.82.82,0,0,0,.24.15.7.7,0,0,0,.4,0,2.1,2.1,0,0,0,.61-.21s.05,0,.06,0l.16.29s0,0,0,.07L9.11,13.07h0l0,0-.16-.29v0s0,0,0,0l.38-.23a2.25,2.25,0,0,0,.41-.34A1.33,1.33,0,0,0,10,11.7a.58.58,0,0,0,0-.46L8.63,8.9s0-.06-.05-.06a.09.09,0,0,0-.08,0l-3.78,2a.14.14,0,0,0-.07.06.2.2,0,0,0,0,.08L6,13.43a.55.55,0,0,0,.25.27.69.69,0,0,0,.32.08.92.92,0,0,0,.36,0,2.54,2.54,0,0,0,.38-.16s0,0,0,0l0,0,.15.29a0,0,0,0,1,0,0s0,0,0,0L4,15.82Z"/><path class="cls-1" d="M13,10.79v0s0,0,0,0l.13,0,.51-.15a1.93,1.93,0,0,0,.46-.19.81.81,0,0,0,.3-.31.84.84,0,0,0,0-.53L12.85,3.4a.69.69,0,0,0-.19-.35.73.73,0,0,0-.31-.17,1.23,1.23,0,0,0-.39,0l-.42,0-.12,0a0,0,0,0,1-.05,0,0,0,0,0,1,0,0l-.06-.24v0s0,0,0,0l6-1.52a.22.22,0,0,1,.16,0s.07.07.11.15l.59,1.89s0,0,0,0a.18.18,0,0,1-.09,0l-.09,0a.15.15,0,0,1-.08,0,.49.49,0,0,1-.1-.16c0-.08-.07-.16-.11-.25a1.92,1.92,0,0,0-.14-.29.92.92,0,0,0-.19-.25A.64.64,0,0,0,17,2,.85.85,0,0,0,16.66,2l-2.13.55a.07.07,0,0,0-.06.1l.73,2.84s0,.06.07,0L17,5.09A1.15,1.15,0,0,0,17.27,5a.63.63,0,0,0,.22-.21.8.8,0,0,0,.1-.33A1.22,1.22,0,0,0,17.54,4s0-.06,0-.06l.23-.06a0,0,0,0,1,.06,0l.7,2.74s0,0,0,0h0l-.23.06s0,0,0,0l0,0A1.86,1.86,0,0,0,18,6.17a.89.89,0,0,0-.26-.28.58.58,0,0,0-.3-.09,1.22,1.22,0,0,0-.32,0l-1.69.43s-.05,0,0,.08L16.09,9a.7.7,0,0,0,.12.26.44.44,0,0,0,.19.12.58.58,0,0,0,.23,0,1.32,1.32,0,0,0,.26,0l1.62-.41a1,1,0,0,0,.54-.31,1.47,1.47,0,0,0,.28-.48,1.64,1.64,0,0,0,.09-.53,2,2,0,0,0,0-.44A.19.19,0,0,1,19.45,7a.22.22,0,0,1,.13-.08h.08a.1.1,0,0,1,.06,0l.36,2.23a.25.25,0,0,1,0,.07.08.08,0,0,1,0,0L13.1,11.08h0v0L13,11Z"/><path class="cls-1" d="M23.78,8.18a.6.6,0,0,0,.21.21.81.81,0,0,0,.3.1h.4s0,0,0,0l0,.33v0a.06.06,0,0,1-.05,0l-3.62.32,0,0,0,0,0-.33v0l0,0,.39-.07a.58.58,0,0,0,.45-.42,1.36,1.36,0,0,0,0-.47l-.54-6.18a.85.85,0,0,0-.09-.35.6.6,0,0,0-.21-.21.81.81,0,0,0-.3-.1,2.66,2.66,0,0,0-.4,0s-.05,0-.05,0l0-.34s0-.05.05-.05L24,.27a0,0,0,0,1,.05,0s0,0,0,0l0,.33s0,0,0,0,0,0,0,0l-.39.07a.53.53,0,0,0-.28.14.53.53,0,0,0-.17.28,1.66,1.66,0,0,0,0,.47l.54,6.19A.81.81,0,0,0,23.78,8.18Z"/><path class="cls-1" d="M27.27,1.2a.54.54,0,0,0-.08-.36.84.84,0,0,0-.27-.26,1.46,1.46,0,0,0-.38-.17,2.13,2.13,0,0,0-.42-.1s-.05,0,0-.06l0-.2s0,0,0,0L30.3.44s0,0,0,0a0,0,0,0,1,0,0l0,.21s0,0-.05,0a2.35,2.35,0,0,0-.38,0,1.29,1.29,0,0,0-.4.08.75.75,0,0,0-.32.21A.64.64,0,0,0,29,1.4l-.26,2.52a2,2,0,0,0,0,.4c0,.09,0,.14.07.15h.14a2.91,2.91,0,0,0,.66-.33,4.81,4.81,0,0,0,.57-.44,6.14,6.14,0,0,0,.5-.52l.47-.57.27-.32.26-.3c.08-.1.14-.2.2-.29A.91.91,0,0,0,32,1.4a.39.39,0,0,0-.06-.27A.4.4,0,0,0,31.73,1a1.14,1.14,0,0,0-.26-.09l-.26,0h-.06l0,0a0,0,0,0,1,0,0l0-.21a0,0,0,0,0,0,0,0,0,0,0,1,.05,0L34.9.92s0,0,0,0a0,0,0,0,1,0,0l0,.21a.05.05,0,0,1,0,0,0,0,0,0,1-.06,0,5.14,5.14,0,0,0-.68,0,2.13,2.13,0,0,0-.57.1,1.56,1.56,0,0,0-.5.28,2.64,2.64,0,0,0-.45.48c-.26.34-.48.64-.68.88s-.38.45-.53.61-.28.3-.38.4l-.27.25-.17.16a.46.46,0,0,0-.07.14.44.44,0,0,0,.12.17l.26.3c.11.12.24.27.39.46s.32.4.51.66.39.57.62.92.46.75.71,1.21a1.64,1.64,0,0,0,.49.56,2.19,2.19,0,0,0,.7.35l.32.11.19.05.12,0h.1s0,0,0,0a.08.08,0,0,1,0,0l0,.19a.06.06,0,0,1-.06.05l-4.56-.48s0,0,0-.06l0-.2s0,0,.06,0a1,1,0,0,1,.22,0H31a.49.49,0,0,0,.25-.06.24.24,0,0,0,.13-.21.79.79,0,0,0-.1-.32q-.11-.21-.27-.48c-.1-.17-.22-.35-.34-.53l-.34-.5c-.13-.17-.25-.35-.36-.52a4.89,4.89,0,0,0-.35-.5,2.27,2.27,0,0,0-.38-.38,1,1,0,0,0-.47-.18h-.12s-.05,0-.05,0,0,0,0,.06l-.27,2.59a.73.73,0,0,0,.07.44.68.68,0,0,0,.27.26,1.35,1.35,0,0,0,.37.13l.39.06,0,0v0l0,.19a0,0,0,0,1,0,0l0,0-4.16-.44a0,0,0,0,1,0-.05l0-.21a0,0,0,0,1,.05-.05,2.06,2.06,0,0,0,.43,0,1.64,1.64,0,0,0,.41-.1.76.76,0,0,0,.32-.2.56.56,0,0,0,.15-.33Z"/><path class="cls-1" d="M34.78,9.41l0,0s0,0,0,0l.13,0,.51.16a1.75,1.75,0,0,0,.49.09.76.76,0,0,0,.42-.09.82.82,0,0,0,.3-.43l2.07-6a.86.86,0,0,0,0-.41.79.79,0,0,0-.17-.31,1.25,1.25,0,0,0-.3-.25L38,2l-.12,0s0,0,0,0,0,0,0,0l.08-.23a0,0,0,0,1,0,0,0,0,0,0,1,.05,0l5.79,2a.21.21,0,0,1,.14.09.26.26,0,0,1,0,.18l-.54,1.9s0,0-.07,0l-.09,0-.09,0s-.05,0-.05-.06a.3.3,0,0,1,0-.19c0-.08,0-.17.05-.27a2.91,2.91,0,0,0,0-.31,1.13,1.13,0,0,0,0-.32A.84.84,0,0,0,43,4.37a.8.8,0,0,0-.29-.25L40.63,3.4c-.05,0-.08,0-.1,0l-1,2.78s0,.06,0,.08l1.67.58a1.33,1.33,0,0,0,.3.06.58.58,0,0,0,.29-.05.7.7,0,0,0,.28-.22,1.32,1.32,0,0,0,.22-.43,0,0,0,0,1,.06,0l.23.08a0,0,0,0,1,0,.06L41.75,9a0,0,0,0,1,0,0h0L41.46,9s0,0,0,0v0a1.66,1.66,0,0,0,.12-.55A.86.86,0,0,0,41.48,8a.52.52,0,0,0-.2-.24A1,1,0,0,0,41,7.6L39.35,7a.05.05,0,0,0-.08,0l-.88,2.55a.63.63,0,0,0,0,.29.52.52,0,0,0,.09.2.86.86,0,0,0,.18.14l.24.1,1.59.56a1.12,1.12,0,0,0,.62,0,1.31,1.31,0,0,0,.5-.25,1.9,1.9,0,0,0,.36-.39,2.4,2.4,0,0,0,.23-.38.19.19,0,0,1,.12-.09.3.3,0,0,1,.16,0s0,0,.06.05,0,0,0,.06L41.58,12l0,0a.07.07,0,0,1-.06,0L34.72,9.72l0,0v0l0-.08Z"/><path class="cls-1" d="M45.09,13.65s0,0,0,0l.21-.26,0,0h.05a1.81,1.81,0,0,0,.32.22.77.77,0,0,0,.35.12.68.68,0,0,0,.37,0,.93.93,0,0,0,.37-.31L50.6,8.49a.74.74,0,0,0,.16-.32.61.61,0,0,0,0-.3.89.89,0,0,0-.15-.29,3.5,3.5,0,0,0-.27-.28s0,0,0-.07L50.54,7s0,0,.06,0l2.87,2.25a0,0,0,0,1,0,0v0l-.21.26s0,0-.06,0a1.66,1.66,0,0,0-.3-.19.65.65,0,0,0-.32-.09.56.56,0,0,0-.32.08.92.92,0,0,0-.34.3l-1.57,2s0,.06,0,.08,0,0,.05.06l3.38,2.66.08,0,.06-.05,1.63-2.07a.52.52,0,0,0,.11-.37.86.86,0,0,0-.13-.39,2.17,2.17,0,0,0-.27-.37c-.11-.12-.22-.22-.32-.31a0,0,0,0,1,0-.07l.21-.26s0,0,.06,0l3.23,2.54s0,0,0,0a0,0,0,0,1,0,0l-.2.26s0,0-.07,0a1.57,1.57,0,0,0-.3-.2,1,1,0,0,0-.32-.09.58.58,0,0,0-.34.07.92.92,0,0,0-.34.3l-3.77,4.8a1,1,0,0,0-.14.25.88.88,0,0,0,0,.29.83.83,0,0,0,.12.38,1.94,1.94,0,0,0,.43.47s0,0,0,.07l-.2.26a0,0,0,0,1-.07,0l-3.52-2.76s0,0,0,0a0,0,0,0,1,0,0l.2-.26,0,0s0,0,0,0l.37.26a2.92,2.92,0,0,0,.47.23,1.21,1.21,0,0,0,.49.07.55.55,0,0,0,.4-.22l1.64-2.1s0-.05,0-.07,0,0-.05-.07L49.9,12.38s0,0-.07,0a.17.17,0,0,0-.07.06l-1.68,2.14a.67.67,0,0,0-.14.33.76.76,0,0,0,.05.33,1,1,0,0,0,.2.31,1.61,1.61,0,0,0,.3.28l0,0,0,0-.2.26,0,0h0l-3.11-2.45A.05.05,0,0,1,45.09,13.65Z"/><path class="cls-1" d="M53.31,19.91h0l0,0,.08.11c.12.13.23.26.35.41a1.86,1.86,0,0,0,.35.34.79.79,0,0,0,.41.15.74.74,0,0,0,.48-.2l5-3.88a.8.8,0,0,0,.25-.32,1.08,1.08,0,0,0,0-.36,1.45,1.45,0,0,0-.12-.37c-.06-.12-.12-.25-.19-.37l-.08-.1s0,0,0,0,0,0,0,0l.19-.15h0a0,0,0,0,1,0,0L64,20a.25.25,0,0,1,.07.15s0,.09-.1.15l-1.49,1.3s0,0-.07,0l-.07-.06,0-.09a.22.22,0,0,1,0-.08.41.41,0,0,1,.11-.16l.18-.19a2.57,2.57,0,0,0,.21-.24,1.56,1.56,0,0,0,.16-.28.8.8,0,0,0,.05-.32.92.92,0,0,0-.11-.36L61.49,18c0-.05-.07-.05-.12,0l-2.31,1.81s0,.05,0,.09l1.08,1.39a1.1,1.1,0,0,0,.22.21.7.7,0,0,0,.28.12.69.69,0,0,0,.34,0,1.46,1.46,0,0,0,.43-.24s0,0,.07,0l.14.19s0,.05,0,.07l-2.23,1.74h0l0,0-.15-.19a.08.08,0,0,1,0,0l0,0a1.67,1.67,0,0,0,.4-.4.78.78,0,0,0,.14-.35.54.54,0,0,0,0-.31,1.17,1.17,0,0,0-.17-.28l-1.07-1.37s0,0-.09,0L56.23,22a.55.55,0,0,0-.19.22.41.41,0,0,0,0,.22.6.6,0,0,0,.08.21,1.64,1.64,0,0,0,.14.22l1,1.32a1,1,0,0,0,.49.38,1.53,1.53,0,0,0,.56.06,1.74,1.74,0,0,0,.51-.13,3.08,3.08,0,0,0,.4-.19.16.16,0,0,1,.15,0,.38.38,0,0,1,.13.09l0,.08a.08.08,0,0,1,0,.07l-1.9,1.22h-.07l0,0-4.4-5.63s0,0,0,0l0,0,.07,0Z"/><path class="cls-1" d="M60.05,28.8a.57.57,0,0,0-.11.27.71.71,0,0,0,0,.32,1.42,1.42,0,0,0,.16.36.06.06,0,0,1,0,.07l-.3.16h0s0,0,0,0L58,26.76a0,0,0,0,1,0,0s0,0,0,0l.29-.16h0s0,0,0,0,.14.23.21.33a.67.67,0,0,0,.25.2.56.56,0,0,0,.32,0,1.23,1.23,0,0,0,.45-.16l5.44-3a.72.72,0,0,0,.28-.22.54.54,0,0,0,.11-.27.89.89,0,0,0,0-.32,2.22,2.22,0,0,0-.16-.36s0-.05,0-.07l.3-.16a0,0,0,0,1,.06,0l1.75,3.2s0,0,0,0l0,0-.29.16h0s0,0,0,0-.14-.23-.21-.33a.76.76,0,0,0-.25-.2.59.59,0,0,0-.33,0,1.25,1.25,0,0,0-.44.16l-5.44,3A.72.72,0,0,0,60.05,28.8Z"/><path class="cls-1" d="M60.29,30.35s0,0,0,0l.26-.08s0,0,.06,0,0,.09,0,.14l.06.16a1.31,1.31,0,0,1,0,.15.35.35,0,0,0,.06.09.68.68,0,0,0,.26.18.81.81,0,0,0,.31.06l.36,0a3.31,3.31,0,0,0,.39-.11l5.89-1.81a.3.3,0,0,0,.21-.2,1,1,0,0,0,.06-.34,1.47,1.47,0,0,0,0-.36,1.91,1.91,0,0,0-.06-.27s0,0,0,0,0,0,0,0l.26-.08h0a0,0,0,0,1,0,0l.82,2.67-4.05,6.8s0,.05,0,.06a0,0,0,0,0,0,0s0,0,0,0,0,0,0,0l3.49-1.08c.39-.12.7-.23.92-.32a1.43,1.43,0,0,0,.49-.32.57.57,0,0,0,.15-.38,1.43,1.43,0,0,0-.08-.5l-.1-.3s0,0,0,0l0,0,.26-.08h0s0,0,0,0l1,3.24a0,0,0,0,1,0,0h0l-.26.08h0s0,0,0,0a1.07,1.07,0,0,0-.14-.29,1.85,1.85,0,0,0-.25-.32,1.18,1.18,0,0,0-.31-.24.43.43,0,0,0-.33,0l-7,2.14a.37.37,0,0,1-.18,0,.46.46,0,0,1-.15-.09.76.76,0,0,1-.11-.14,1,1,0,0,1-.07-.15,1.23,1.23,0,0,1,0-.29.72.72,0,0,1,.13-.38l4.45-7.45a.2.2,0,0,0,0-.08v-.05s0,0-.07,0L62,32a.48.48,0,0,0-.26.17.84.84,0,0,0-.15.26,1.64,1.64,0,0,0,0,.32,1.67,1.67,0,0,0,0,.32,1.93,1.93,0,0,0,0,.27,1.27,1.27,0,0,0,0,.18s0,0,0,0l0,0-.26.08h0s0,0,0,0l-1-3.23A.08.08,0,0,1,60.29,30.35Z"/><path class="cls-1" d="M63.48,40.41l.14,0,.13.07,7.42,5.29.07,0a0,0,0,0,0,.05,0v-.09l-.12-3.07a1,1,0,0,0,0-.29A1.14,1.14,0,0,0,71,42a.91.91,0,0,0-.2-.24.59.59,0,0,0-.27-.14l-.26-.06-.57-.09s-.07,0-.09-.09a1.06,1.06,0,0,1,0-.19v-.05a.15.15,0,0,1,0-.07V41s0,0,0,0h2.27a.16.16,0,0,1,.07.07v.05l.28,6.92s0,0,0,0l-.07,0-.09,0-.08,0a.5.5,0,0,1-.25-.07L64.56,43l-.11-.06a.19.19,0,0,0-.12,0,.13.13,0,0,0-.13.1.68.68,0,0,0,0,.19l.16,3.91a.81.81,0,0,0,.22.57,1.47,1.47,0,0,0,.52.34,2.25,2.25,0,0,0,.64.18,4.54,4.54,0,0,0,.59,0l.06,0,0,.07a.25.25,0,0,1,0,.08v.12s0,0,0,.08a.33.33,0,0,1,0,.06s0,0,0,0h-.29l-2.15,0h-.25l-.08,0a.12.12,0,0,1,0-.11l-.31-7.84a.39.39,0,0,1,0-.13.16.16,0,0,1,.07-.07l.09,0Z"/><path class="cls-1" d="M63.82,49.07h0s0,0,0,.05l0,.13a5.15,5.15,0,0,1-.07.53,1.64,1.64,0,0,0,0,.49.62.62,0,0,0,.16.4.7.7,0,0,0,.47.23l6.2,1.15A.69.69,0,0,0,71,52a.63.63,0,0,0,.28-.21,1.08,1.08,0,0,0,.2-.33,3.12,3.12,0,0,0,.15-.39l0-.13a.05.05,0,0,1,0,0h0l.23,0,0,0s0,0,0,0l-1.11,6a.35.35,0,0,1-.07.15.36.36,0,0,1-.18,0l-2-.25a.07.07,0,0,1,0-.06v-.1l0-.09s0-.06,0-.06a.5.5,0,0,1,.19,0h.59a1.07,1.07,0,0,0,.31-.06,1,1,0,0,0,.27-.17.77.77,0,0,0,.2-.33l.4-2.16a.07.07,0,0,0-.06-.09l-2.89-.54s-.07,0-.07,0l-.32,1.74a1,1,0,0,0,0,.3.7.7,0,0,0,.09.29.66.66,0,0,0,.26.23,1.24,1.24,0,0,0,.46.16s.05,0,0,.06l0,.24a.05.05,0,0,1-.06,0l-2.77-.52s0,0,0,0,0,0,0,0l0-.23a.05.05,0,0,1,0,0h0a1.86,1.86,0,0,0,.56,0,.9.9,0,0,0,.36-.12.58.58,0,0,0,.2-.24,1,1,0,0,0,.1-.3l.32-1.72s0-.06-.05-.07l-2.65-.49a.55.55,0,0,0-.29,0,.4.4,0,0,0-.19.11.7.7,0,0,0-.11.21,1.49,1.49,0,0,0-.07.25l-.3,1.65a1.06,1.06,0,0,0,0,.62,1.47,1.47,0,0,0,.32.45,1.85,1.85,0,0,0,.44.31,2.82,2.82,0,0,0,.41.16.18.18,0,0,1,.11.1.3.3,0,0,1,0,.16.25.25,0,0,1,0,.07s0,0-.07,0l-2.17-.61-.06,0a.07.07,0,0,1,0-.06l1.29-7,0,0h0l.08,0Z"/></g></g></svg>