<svg xmlns="http://www.w3.org/2000/svg" viewBox="0 0 166.03 166.03"><defs><style>.cls-1{fill:#03f;}</style></defs><title>Asset 2</title><g id="Layer_2" data-name="Layer 2"><g id="Layer_2-2" data-name="Layer 2"><path class="cls-1" d="M165,83h-1A81,81,0,1,1,140.3,25.73,80.76,80.76,0,0,1,164,83h2a83,83,0,1,0-83,83,83,83,0,0,0,83-83Z"/><path class="cls-1" d="M51.17,39.41l5-2.7,0,0,0-.05L56,36.2l0,0h-.07a2.5,2.5,0,0,1-.54.23,1.67,1.67,0,0,1-.52.09,1.06,1.06,0,0,1-.47-.13A.82.82,0,0,1,54,36l-1.86-3.44,0-.11.08-.08,5.44-2.94.11,0,.08.09,1.82,3.37a.78.78,0,0,1,.07.66,1.77,1.77,0,0,1-.37.59,3.86,3.86,0,0,1-.58.49c-.21.14-.4.25-.55.34l0,0v0l.23.42,0,0h.06l5.66-3.05,0-.1L64,31.89l-.1,0a2.74,2.74,0,0,1-.88.31,1.06,1.06,0,0,1-.56-.07,1.1,1.1,0,0,1-.35-.22,1.12,1.12,0,0,1-.26-.33l-4.16-7.71a1.44,1.44,0,0,1-.2-.62.94.94,0,0,1,.1-.48,1.4,1.4,0,0,1,.31-.38,3.35,3.35,0,0,1,.44-.29l0-.08-.22-.42,0,0H58l-5.2,2.81,0,.09.23.42.1,0c.17-.08.37-.16.59-.24a4,4,0,0,1,.65-.15,1.63,1.63,0,0,1,.59.05.72.72,0,0,1,.41.36l1.8,3.34,0,.11-.08.08-5.44,2.94-.12,0-.07-.09-1.74-3.21a1.59,1.59,0,0,1-.2-.62.88.88,0,0,1,.09-.47,1,1,0,0,1,.29-.37,3.23,3.23,0,0,1,.43-.29l0-.08-.23-.42,0,0h-.07l-4.61,2.49,0,.1.23.42.1,0a3,3,0,0,1,.52-.19,1.22,1.22,0,0,1,.46,0,.83.83,0,0,1,.4.16,1.24,1.24,0,0,1,.33.4L51.67,37a1.34,1.34,0,0,1,.19.66,1.09,1.09,0,0,1-.15.52,1.24,1.24,0,0,1-.37.39,4.53,4.53,0,0,1-.46.3l0,.05v0l.22.42,0,0Z"/><path class="cls-1" d="M64.19,32.4l0,.12,0,0,.07,0L74.25,30l.06-.06,0-.09-.52-3.21-.08-.07h-.11l-.2.12-.06.2a5.53,5.53,0,0,1,0,.63,2.6,2.6,0,0,1-.14.76,1.86,1.86,0,0,1-.4.69,1.57,1.57,0,0,1-.77.44L69.75,30a2.66,2.66,0,0,1-.37.07.89.89,0,0,1-.33,0,.56.56,0,0,1-.27-.17,1.12,1.12,0,0,1-.18-.38l-.95-3.75.06-.11,2.43-.61A1.88,1.88,0,0,1,70.6,25a.77.77,0,0,1,.43.13,1.29,1.29,0,0,1,.38.39,2.81,2.81,0,0,1,.29.76l0,0,.06,0,.33-.09,0,0v-.06l-1-3.93-.08-.05-.34.08,0,.09a2,2,0,0,1,.08.7,1.24,1.24,0,0,1-.16.47.89.89,0,0,1-.32.29,1.48,1.48,0,0,1-.41.17l-2.45.62-.11-.06-1-4.09.08-.14,3.07-.78a1.15,1.15,0,0,1,.54.06,1.33,1.33,0,0,1,.39.26,1.77,1.77,0,0,1,.27.37c.07.14.14.27.19.4s.11.26.16.36a.46.46,0,0,0,.15.23l.1,0,.14,0,.13,0,.06-.09-.86-2.7c0-.12-.09-.2-.14-.22a.33.33,0,0,0-.24,0l-8.54,2.17,0,0v.05l.08.33,0,0h.07l.18,0,.6,0a1.93,1.93,0,0,1,.55.06,1.17,1.17,0,0,1,.45.25,1,1,0,0,1,.28.51l2.23,8.78a1.07,1.07,0,0,1,0,.76,1.1,1.1,0,0,1-.43.45,2.84,2.84,0,0,1-.66.27c-.25.06-.5.14-.73.22l-.19,0-.05,0v0Z"/><path class="cls-1" d="M79.57,27.93l-.75-8.88a1.78,1.78,0,0,1,0-.68.84.84,0,0,1,.24-.4.94.94,0,0,1,.41-.21,4.1,4.1,0,0,1,.56-.09l.05,0v0l0-.48v0l-.06,0-5.22.44-.06.07,0,.48.08.07a2.62,2.62,0,0,1,.56,0,1.14,1.14,0,0,1,.44.14.79.79,0,0,1,.29.31,1.29,1.29,0,0,1,.14.49L77,27.94a2,2,0,0,1,0,.68.84.84,0,0,1-.24.4.93.93,0,0,1-.42.21,4,4,0,0,1-.55.09l-.06,0v0l0,.48,0,0,.06,0,5.21-.44.06,0v0l-.05-.48L81,28.88a3.53,3.53,0,0,1-.57,0,1.09,1.09,0,0,1-.43-.14.79.79,0,0,1-.3-.3A1.18,1.18,0,0,1,79.57,27.93Z"/><path class="cls-1" d="M83.73,27.74a.81.81,0,0,1-.21.49,1.42,1.42,0,0,1-.46.28,2.13,2.13,0,0,1-.59.13,2.58,2.58,0,0,1-.62,0l-.07.07,0,.3,0,.07,6,.64.06,0v0l0-.28v-.05l-.06,0-.56-.09a1.92,1.92,0,0,1-.54-.19.94.94,0,0,1-.37-.37,1,1,0,0,1-.1-.63l.4-3.73,0-.09.08,0,.17,0a1.26,1.26,0,0,1,.66.26,2.58,2.58,0,0,1,.56.54c.17.22.34.46.5.71s.33.51.51.77l.49.71c.17.26.34.52.49.77s.27.48.37.68a1.24,1.24,0,0,1,.15.46.32.32,0,0,1-.18.3.74.74,0,0,1-.36.09,2.88,2.88,0,0,1-.41,0,1.26,1.26,0,0,0-.32,0l-.08.06,0,.3.06.08,6.55.7.08-.07,0-.28v0l0,0-.15,0-.17,0L95.33,30l-.47-.16a3.47,3.47,0,0,1-1-.5,2.48,2.48,0,0,1-.7-.81c-.36-.65-.7-1.24-1-1.74s-.62-.95-.89-1.32-.51-.7-.72-1L90,23.89l-.38-.42a1,1,0,0,1-.17-.26l.11-.18.24-.24.38-.35c.15-.15.34-.34.55-.58s.47-.53.76-.88.61-.77,1-1.26A3.66,3.66,0,0,1,93.1,19a2.16,2.16,0,0,1,.71-.39,3.06,3.06,0,0,1,.82-.16,8.42,8.42,0,0,1,1,0l.08,0,0-.06,0-.3v-.05l-.06,0-5.35-.57-.06,0,0,0,0,.3v0l0,0h.09l.38.06a1.47,1.47,0,0,1,.37.13.67.67,0,0,1,.27.23.6.6,0,0,1,.07.39.91.91,0,0,1-.14.41,3.52,3.52,0,0,1-.29.42l-.37.44q-.21.22-.39.45c-.22.28-.45.55-.68.82a8.56,8.56,0,0,1-.72.75,5.49,5.49,0,0,1-.81.63,4.33,4.33,0,0,1-1,.46l-.09,0h-.1c-.07,0-.1-.08-.11-.22a4.94,4.94,0,0,1,0-.58l.39-3.61a.87.87,0,0,1,.23-.56,1.05,1.05,0,0,1,.45-.3,1.8,1.8,0,0,1,.57-.11,5.09,5.09,0,0,1,.56,0l.07,0,0-.3v0l-.06,0-6-.64-.06.07,0,.3.07.07q.3.06.6.15a2.31,2.31,0,0,1,.55.25,1.22,1.22,0,0,1,.38.37.82.82,0,0,1,.11.52Z"/><path class="cls-1" d="M95.45,30.48l0,.12v0l0,.05,9.67,3.4h.09l.07-.07,1.35-3,0-.09-.09-.07h-.23l-.17.13a2.8,2.8,0,0,1-.33.54,2.75,2.75,0,0,1-.52.56,2,2,0,0,1-.72.35,1.54,1.54,0,0,1-.89-.06l-2.28-.8-.34-.15a.89.89,0,0,1-.26-.21.55.55,0,0,1-.13-.29,1,1,0,0,1,.07-.41L102,26.89l.11-.06,2.36.83a2.25,2.25,0,0,1,.41.21.8.8,0,0,1,.29.34,1.27,1.27,0,0,1,.1.54,2.75,2.75,0,0,1-.17.79v.05l0,0,.33.12h0l0,0,1.34-3.83,0-.09-.33-.11-.09,0a2,2,0,0,1-.32.62,1.18,1.18,0,0,1-.39.31.91.91,0,0,1-.43.07,1.5,1.5,0,0,1-.43-.09l-2.39-.84-.06-.11,1.4-4,.15-.07,3,1.05a1.25,1.25,0,0,1,.42.36,1.19,1.19,0,0,1,.18.42,1.76,1.76,0,0,1,0,.46c0,.16,0,.31-.06.45s-.05.27-.08.38a.65.65,0,0,0,0,.28l.07.08.13.06.14,0,.09,0,.79-2.73a.37.37,0,0,0,0-.26.35.35,0,0,0-.2-.13l-8.31-2.93h-.07l0,0-.12.32v.05l0,0,.18.06.52.3a2,2,0,0,1,.43.37,1.07,1.07,0,0,1,.23.45.92.92,0,0,1,0,.58l-3,8.55a1.1,1.1,0,0,1-.44.62,1,1,0,0,1-.6.13,2.71,2.71,0,0,1-.7-.14c-.25-.08-.49-.16-.73-.22l-.18-.07h-.07l0,0Z"/><path class="cls-1" d="M110.4,36.46,114.86,40h.06l0,0,.3-.37,0,0,0-.06a3.26,3.26,0,0,1-.42-.41,1.35,1.35,0,0,1-.28-.45.9.9,0,0,1,.14-1l2.42-3.07.09-.07.11.05,4.85,3.83.07.09,0,.11-2.37,3a.83.83,0,0,1-.58.33,1.93,1.93,0,0,1-.7-.11,3.52,3.52,0,0,1-.67-.34c-.22-.14-.39-.26-.53-.37l-.06,0,0,0-.3.37v0l0,0,5,4h.1l.3-.38v-.1a2.89,2.89,0,0,1-.63-.68,1.2,1.2,0,0,1-.16-.55,1.31,1.31,0,0,1,.06-.41,1.12,1.12,0,0,1,.21-.36l5.43-6.87a1.44,1.44,0,0,1,.49-.43,1,1,0,0,1,.49-.1,1.12,1.12,0,0,1,.46.14,2.52,2.52,0,0,1,.44.28h.09l.3-.37v0l0-.06L124.88,32h-.09l-.3.38,0,.1q.21.2.45.45a2.46,2.46,0,0,1,.39.54,1.33,1.33,0,0,1,.19.56.74.74,0,0,1-.17.52l-2.35,3-.09.07-.11,0L118,33.73l-.08-.09,0-.11,2.27-2.86a1.37,1.37,0,0,1,.49-.43.89.89,0,0,1,.46-.11,1.1,1.1,0,0,1,.46.13,2.87,2.87,0,0,1,.43.28h.09l.29-.37,0-.05,0-.05-4.11-3.25h-.09l-.3.38,0,.1a3.5,3.5,0,0,1,.38.4,1.33,1.33,0,0,1,.21.41.89.89,0,0,1,0,.43,1.08,1.08,0,0,1-.24.46l-5.5,7a1.28,1.28,0,0,1-.53.43,1.1,1.1,0,0,1-.53.07,1.64,1.64,0,0,1-.51-.18,5.09,5.09,0,0,1-.45-.31l-.07,0,0,0-.3.37,0,0Z"/><path class="cls-1" d="M122,45.61l-.1.07,0,0v.07l6.28,8.12.08,0h.1L131,52.17l0-.1,0-.11-.19-.13-.22,0a3.27,3.27,0,0,1-.56.27,2.42,2.42,0,0,1-.75.18,1.79,1.79,0,0,1-.79-.09,1.42,1.42,0,0,1-.71-.53l-1.48-1.91c-.08-.11-.15-.21-.21-.31a1,1,0,0,1-.11-.32.57.57,0,0,1,.06-.31,1,1,0,0,1,.27-.32l3.06-2.36h.13l1.53,2a1.8,1.8,0,0,1,.23.4.82.82,0,0,1,.06.44,1.38,1.38,0,0,1-.22.51,2.54,2.54,0,0,1-.57.57l0,0v.06l.21.27,0,0h.06L134.06,48v-.1l-.21-.27h-.1a2,2,0,0,1-.61.34,1,1,0,0,1-.5,0,.84.84,0,0,1-.4-.17,1.82,1.82,0,0,1-.31-.31l-1.55-2,0-.12,3.34-2.58.16,0,1.93,2.5a1.24,1.24,0,0,1,.16.52,1.39,1.39,0,0,1-.08.46,1.54,1.54,0,0,1-.23.39,3.45,3.45,0,0,1-.3.34l-.27.29-.15.23,0,.1.07.13.1.09.1,0L137.4,46c.1-.09.15-.16.15-.22l-.1-.22-5.39-7-.06,0h0l-.28.22,0,0v.07l.12.14c.09.18.19.36.27.54a1.59,1.59,0,0,1,.16.54,1,1,0,0,1-.05.5.93.93,0,0,1-.35.46l-7.17,5.55a1.11,1.11,0,0,1-.7.28,1.05,1.05,0,0,1-.58-.21,2.67,2.67,0,0,1-.51-.5c-.16-.2-.33-.4-.49-.58l-.12-.16-.06,0,0,0Z"/><path class="cls-1" d="M132.19,58,140,53.71a1.92,1.92,0,0,1,.64-.23.86.86,0,0,1,.46.06,1,1,0,0,1,.36.29,5,5,0,0,1,.3.48l.05,0h0l.42-.23,0,0V54l-2.48-4.61-.1,0-.42.23,0,.1a2.53,2.53,0,0,1,.22.52,1.05,1.05,0,0,1,0,.46.76.76,0,0,1-.16.38,1.36,1.36,0,0,1-.4.33l-7.84,4.23a1.77,1.77,0,0,1-.64.24.82.82,0,0,1-.82-.36,2.37,2.37,0,0,1-.3-.47l0,0h-.05l-.42.23,0,0v.06l2.49,4.6.05,0,0,0,.42-.23,0-.09a2.78,2.78,0,0,1-.22-.52,1.27,1.27,0,0,1,0-.46.85.85,0,0,1,.17-.39A1.22,1.22,0,0,1,132.19,58Z"/><path class="cls-1" d="M132.13,60.6l1.41,4.66,0,0h0l.37-.12h0l0-.07a2.07,2.07,0,0,1-.06-.26,2,2,0,0,1-.06-.39,3.34,3.34,0,0,1,0-.45,1.77,1.77,0,0,1,.07-.46,1.28,1.28,0,0,1,.21-.38.78.78,0,0,1,.38-.24l7.56-2.28.1,0v.07l-.05.1-6.45,10.68a1.1,1.1,0,0,0-.19.54,1.34,1.34,0,0,0,.05.42l.1.21.15.2.21.13a.5.5,0,0,0,.27,0l10-3a.62.62,0,0,1,.48.05,1.79,1.79,0,0,1,.44.34,2.67,2.67,0,0,1,.36.47,2,2,0,0,1,.19.41l0,0h0l.38-.11,0,0v-.07l-1.4-4.66-.05,0h0l-.37.11,0,0v.06l.13.43a2.44,2.44,0,0,1,.12.72.76.76,0,0,1-.22.54,2,2,0,0,1-.7.46,13.9,13.9,0,0,1-1.33.46l-5,1.52h-.05l0,0v0l0-.07,5.88-9.75L144.08,57l0,0h0l-.37.11,0,0v.07a2.39,2.39,0,0,1,.09.38,2.29,2.29,0,0,1,.05.52,1.29,1.29,0,0,1-.08.49.45.45,0,0,1-.31.29l-8.47,2.56a4.71,4.71,0,0,1-.57.14,2.32,2.32,0,0,1-.51,0,1.13,1.13,0,0,1-.45-.09,1,1,0,0,1-.38-.27l-.07-.13-.08-.2-.08-.23-.07-.21-.09-.05-.37.11,0,0Z"/><path class="cls-1" d="M136.55,75.12l-.13,0-.1.11,0,.18.37,11.28.05.15.12.07.17,0h.19l3.08.09.42,0,0,0,0-.09,0-.11v-.17l0-.12,0-.1-.08,0a5.61,5.61,0,0,1-.85-.08,3.9,3.9,0,0,1-.92-.25,2.32,2.32,0,0,1-.74-.51,1.19,1.19,0,0,1-.32-.81l-.18-5.63a.63.63,0,0,1,.05-.26.18.18,0,0,1,.18-.15l.17.07.16.09,10.2,7.38a.68.68,0,0,0,.36.1l.11,0,.12,0,.1,0,0,0-.32-10v-.07l-.09-.09-.11,0h-.1l-3.05,0,0,.05v.27a1.08,1.08,0,0,0,.05.27l.14.14.81.13.37.08a.92.92,0,0,1,.39.21,1.59,1.59,0,0,1,.29.35,1.57,1.57,0,0,1,.18.42,1.68,1.68,0,0,1,.07.43l.15,4.41v.12l-.08.06-.09,0L137,75.23l-.18-.1-.2,0Z"/><path class="cls-1" d="M136.81,87.5l-.12,0h0l0,.06L134.68,97.6l0,.08.07.07,3.13.89.09,0,.05-.1,0-.23-.16-.15a4,4,0,0,1-.58-.24,2.47,2.47,0,0,1-.63-.44,1.88,1.88,0,0,1-.46-.65,1.54,1.54,0,0,1-.07-.89l.46-2.37a1.9,1.9,0,0,1,.09-.36.82.82,0,0,1,.17-.29.55.55,0,0,1,.27-.17,1,1,0,0,1,.42,0l3.8.73.07.1L140.94,96a1.63,1.63,0,0,1-.15.44.78.78,0,0,1-.3.33A1.18,1.18,0,0,1,140,97a2.91,2.91,0,0,1-.8,0h0l0,0-.07.34v0l.05,0,4,.76.08,0,.07-.34-.06-.08a2.1,2.1,0,0,1-.66-.23,1.12,1.12,0,0,1-.37-.34,1,1,0,0,1-.13-.42,1.66,1.66,0,0,1,0-.44l.47-2.48.11-.07,4.14.79.09.13-.59,3.11a1.17,1.17,0,0,1-.29.46,1.28,1.28,0,0,1-.4.25,1.32,1.32,0,0,1-.44.08,3.57,3.57,0,0,1-.46,0l-.39,0a.7.7,0,0,0-.27,0l-.07.09,0,.13v.14l0,.09,2.82.37a.32.32,0,0,0,.26,0,.35.35,0,0,0,.1-.21l1.66-8.66,0-.06,0,0-.34-.07h0l0,0,0,.18c-.07.19-.14.38-.22.56a1.78,1.78,0,0,1-.3.48,1.12,1.12,0,0,1-.41.3,1,1,0,0,1-.58,0l-8.9-1.7a1.15,1.15,0,0,1-.68-.34,1.05,1.05,0,0,1-.22-.57,3,3,0,0,1,0-.72c.05-.25.09-.51.12-.75l0-.19,0-.07,0,0Z"/><path class="cls-1" d="M31.4,62.13l2.83,2.62a14.66,14.66,0,0,0,1.37,1.1c-.69-.08-1.27-.12-1.76-.13L30,65.62Zm-7.21,4.69L36.75,67l.43-1.06-9.12-8.65-.51,1.27,2.9,2.72L28.7,65.56l-4,0Z"/><path class="cls-1" d="M26.86,74.16a22.56,22.56,0,0,0-2.37-1.26,22.06,22.06,0,0,0,2.62-.2L35,71.59l.29-1.4L23.07,71.93l-.27,1.31L33.36,79.7l.3-1.43Z"/><path class="cls-1" d="M26.65,81.82l3.57,1.46a15.91,15.91,0,0,0,1.67.54c-.67.17-1.23.34-1.7.5l-3.64,1.26Zm-5.1,6.91,11.8-4.28,0-1.14-11.57-4.9,0,1.37,3.67,1.53L25.33,86l-3.75,1.35Z"/><rect class="cls-1" x="21.99" y="90.48" width="11.65" height="1.35" transform="translate(-9.78 3.58) rotate(-6.26)"/><polygon class="cls-1" points="24.09 102.63 25.29 102.35 24.13 97.35 34.28 95 33.98 93.68 22.63 96.3 24.09 102.63"/><path class="cls-1" d="M30.23,105.11l3.85-.14a16.33,16.33,0,0,0,1.75-.18,16.39,16.39,0,0,0-1.34,1.15l-2.8,2.64Zm-1.82,8.39,9-8.74L37,103.71,24.42,104l.53,1.26,4-.11,1.8,4.3-2.85,2.77Z"/><path class="cls-1" d="M36.44,115.85a3.85,3.85,0,0,1,.8,2.13,1.79,1.79,0,0,1-.92,1.49,2,2,0,0,1-1.82.35,3.39,3.39,0,0,1-1.63-1.47l-1.34-2,3.63-2.41Zm2.86-4.67,1.1,1.66a4.45,4.45,0,0,1,.87,2.1,1.53,1.53,0,0,1-.79,1.36,1.73,1.73,0,0,1-1.61.32,3.68,3.68,0,0,1-1.52-1.47l-1.23-1.86Zm-9.48,4.66,2.24,3.38a4.48,4.48,0,0,0,2.36,2,3,3,0,0,0,2.62-.47c1.3-.86,1.58-2.11.86-3.75l.06,0a2.8,2.8,0,0,0,1.66.92,2.57,2.57,0,0,0,1.75-.46,2.45,2.45,0,0,0,1.25-2.08,6.16,6.16,0,0,0-1.28-3.17l-1.81-2.75Z"/><polygon class="cls-1" points="41.02 129.94 41.91 129.1 38.39 125.36 45.98 118.21 45.05 117.23 36.57 125.21 41.02 129.94"/><polygon class="cls-1" points="49.11 134.85 45.04 131.72 47.66 128.32 51.48 131.27 52.21 130.33 48.39 127.38 50.69 124.41 54.75 127.55 55.49 126.6 50.35 122.63 43.23 131.85 48.37 135.81 49.11 134.85"/><polygon class="cls-1" points="58.73 135.95 63.13 137.93 63.63 136.83 59.22 134.85 60.97 130.96 65.66 133.07 66.15 131.98 60.23 129.31 55.45 139.93 56.69 140.49 58.73 135.95"/><path class="cls-1" d="M68.18,134.93a3.59,3.59,0,0,1,3.15-.51,3.5,3.5,0,0,1,2.55,1.85,7,7,0,0,1-1.65,7,3.54,3.54,0,0,1-3.12.52,3.61,3.61,0,0,1-2.57-1.86,6.83,6.83,0,0,1,1.64-7Zm6.87.76a4.94,4.94,0,0,0-3.45-2.45,5,5,0,0,0-4.23.61,6.39,6.39,0,0,0-2.38,4,6.48,6.48,0,0,0,.34,4.64,5,5,0,0,0,3.51,2.44,5,5,0,0,0,4.19-.65,7.53,7.53,0,0,0,2-8.56Z"/><path class="cls-1" d="M79.54,135.86l1.75,0a3.75,3.75,0,0,1,2.18.57,2,2,0,0,1,.63,1.68,2.11,2.11,0,0,1-.72,1.69,3.16,3.16,0,0,1-2.12.51l-1.85-.05Zm2.26,5.68,2.68,4.92,1.61,0-3-5.32a3.09,3.09,0,0,0,2.43-3.06,3,3,0,0,0-1-2.5,5.06,5.06,0,0,0-3.14-.91l-3.19-.09-.34,11.64,1.36,0,.14-4.84Z"/><polygon class="cls-1" points="99.5 132.16 98.19 132.49 99.41 137.29 93.46 138.8 92.24 133.99 90.93 134.33 93.79 145.62 95.1 145.28 93.76 139.97 99.7 138.47 101.05 143.78 102.36 143.45 99.5 132.16"/><rect class="cls-1" x="103.82" y="130.43" width="1.35" height="11.65" transform="translate(-44.65 51.17) rotate(-22.81)"/><path class="cls-1" d="M106.9,130l1.52-.89a3.69,3.69,0,0,1,2.14-.67,2,2,0,0,1,1.43,1.09,2.16,2.16,0,0,1,.29,1.82,3.26,3.26,0,0,1-1.53,1.55l-1.6.94Zm4.93,3.61,4.88,2.76,1.38-.81-5.37-2.92a3.1,3.1,0,0,0,.44-3.88,3,3,0,0,0-2.13-1.61,5,5,0,0,0-3.15.89l-2.75,1.62L111,139.75l1.16-.69-2.44-4.18Z"/><polygon class="cls-1" points="124.55 128.68 120.63 132 117.86 128.72 121.55 125.61 120.77 124.69 117.09 127.81 114.67 124.94 118.59 121.63 117.81 120.71 112.85 124.9 120.37 133.8 125.33 129.6 124.55 128.68"/></g></g></svg>