<svg xmlns="http://www.w3.org/2000/svg" viewBox="0 0 116.17 116.17"><defs><style>.cls-1{fill:#03f;}</style></defs><title>Asset 5</title><g id="Layer_2" data-name="Layer 2"><g id="Layer_2-2" data-name="Layer 2"><path class="cls-1" d="M115.17,58.09h-1A56.08,56.08,0,1,1,97.75,18.43a55.92,55.92,0,0,1,16.42,39.66h2a58.09,58.09,0,1,0-58.08,58.08,58.08,58.08,0,0,0,58.08-58.08Z"/><path class="cls-1" d="M35.92,27.74l3.48-1.88,0,0v0l-.16-.29,0,0h-.05a2,2,0,0,1-.37.16,1.24,1.24,0,0,1-.37.06.72.72,0,0,1-.32-.08.73.73,0,0,1-.25-.27L36.59,23l0-.08.06-.05,3.78-2,.08,0,0,.07,1.27,2.34a.54.54,0,0,1,0,.46,1.19,1.19,0,0,1-.26.41,2.57,2.57,0,0,1-.4.34l-.39.24,0,0v0L41,25l0,0H41L45,22.86l0-.06-.15-.3-.07,0a1.63,1.63,0,0,1-.61.21.78.78,0,0,1-.39,0,1.83,1.83,0,0,1-.25-.15.84.84,0,0,1-.18-.23l-2.9-5.37a1,1,0,0,1-.13-.43.55.55,0,0,1,.07-.34.86.86,0,0,1,.21-.26,2.61,2.61,0,0,1,.3-.2l0-.06-.16-.29,0,0h0l-3.61,1.95,0,.07.16.29.07,0c.12-.06.26-.11.41-.17a2.72,2.72,0,0,1,.46-.1.89.89,0,0,1,.4,0,.53.53,0,0,1,.29.26L40.09,20l0,.07-.06.06-3.79,2-.08,0,0-.06-1.21-2.23a1.07,1.07,0,0,1-.14-.43.58.58,0,0,1,.06-.33.86.86,0,0,1,.21-.26l.29-.2,0,0-.16-.29,0,0h0L31.94,20l0,.06.16.29.07,0a1.74,1.74,0,0,1,.36-.13.7.7,0,0,1,.32,0,.61.61,0,0,1,.28.11.84.84,0,0,1,.23.28l2.93,5.43a.9.9,0,0,1,.13.46.75.75,0,0,1-.1.36,1.1,1.1,0,0,1-.26.27,2.2,2.2,0,0,1-.32.21l0,0v0l.15.29,0,0Z"/><path class="cls-1" d="M44.93,22.87,45,23l0,0h0l6.92-1.77,0,0,0-.06-.36-2.24-.06,0H51.5l-.14.09,0,.14a2,2,0,0,1,0,.44,1.58,1.58,0,0,1-.09.52,1.17,1.17,0,0,1-.28.48,1,1,0,0,1-.53.31l-1.63.42-.26,0h-.23l-.19-.12a.68.68,0,0,1-.12-.27l-.67-2.6.05-.08,1.68-.43a1.22,1.22,0,0,1,.32,0,.53.53,0,0,1,.3.09.77.77,0,0,1,.27.27,1.71,1.71,0,0,1,.2.52l0,0h0l.24-.06,0,0v0l-.7-2.73-.06,0-.23.06,0,.06a1.26,1.26,0,0,1,0,.49.8.8,0,0,1-.1.33.7.7,0,0,1-.22.2,1.48,1.48,0,0,1-.29.12l-1.71.43-.07,0-.73-2.85.06-.09,2.13-.55A.78.78,0,0,1,49,14a1,1,0,0,1,.27.17,1.74,1.74,0,0,1,.19.26c.05.09.09.19.13.28l.11.25.1.16.08,0h.1l.09,0,0-.06-.59-1.88L49.35,13h-.16l-5.94,1.52,0,0v0l.06.23,0,0h0l.12,0,.42,0a1.23,1.23,0,0,1,.39,0,.73.73,0,0,1,.31.17.69.69,0,0,1,.19.36l1.57,6.11a.78.78,0,0,1,0,.53.81.81,0,0,1-.3.31,1.77,1.77,0,0,1-.46.19,4.91,4.91,0,0,0-.51.15l-.13,0,0,0v0Z"/><path class="cls-1" d="M55.6,19.75l-.54-6.18a1.63,1.63,0,0,1,0-.47.6.6,0,0,1,.17-.28.67.67,0,0,1,.29-.15,2,2,0,0,1,.38-.06l0,0v0l0-.33v0l0,0-3.63.32-.05.05,0,.33.06,0a1.27,1.27,0,0,1,.39,0,.67.67,0,0,1,.3.1.53.53,0,0,1,.21.21.81.81,0,0,1,.09.34l.54,6.18a1.12,1.12,0,0,1,0,.47.55.55,0,0,1-.16.28.73.73,0,0,1-.29.15,2.28,2.28,0,0,1-.39.06l0,0v0l0,.33v0h0l3.63-.31,0,0v0l0-.33,0,0a1.65,1.65,0,0,1-.39,0,.75.75,0,0,1-.31-.09l-.2-.21A.9.9,0,0,1,55.6,19.75Z"/><path class="cls-1" d="M58.5,19.61a.51.51,0,0,1-.15.34.92.92,0,0,1-.31.2,1.43,1.43,0,0,1-.41.09,2.17,2.17,0,0,1-.44,0l0,0,0,.21,0,.06,4.15.43h0l0,0,0-.2v0l0,0L61,20.64a1.09,1.09,0,0,1-.37-.14.72.72,0,0,1-.27-.25.75.75,0,0,1-.06-.44l.27-2.59v-.07h.17a1,1,0,0,1,.47.18,1.74,1.74,0,0,1,.39.38,4.69,4.69,0,0,1,.34.49c.12.18.23.36.36.53l.34.49c.13.19.24.36.35.54s.19.33.26.48a.79.79,0,0,1,.1.32.25.25,0,0,1-.12.21,1,1,0,0,1-.25.06l-.29,0a.88.88,0,0,0-.22,0l-.06,0,0,.21,0,.05,4.55.48.06,0,0-.2v0l0,0-.11,0-.11,0-.2-.06-.32-.1a2.57,2.57,0,0,1-.7-.36,1.66,1.66,0,0,1-.49-.56c-.25-.45-.49-.85-.71-1.21s-.43-.65-.62-.92-.35-.48-.5-.66l-.39-.45-.27-.3-.12-.18.08-.13.16-.16.27-.25c.1-.1.23-.23.38-.4l.53-.61c.2-.25.42-.54.68-.89a2.36,2.36,0,0,1,.46-.48,1.69,1.69,0,0,1,.49-.27,2.13,2.13,0,0,1,.57-.11,5.39,5.39,0,0,1,.69,0l.06,0,0-.05,0-.2v0l0,0-3.73-.39,0,0v0l0,.2v0l0,0h.06l.26,0a1,1,0,0,1,.26.09l.19.16a.45.45,0,0,1,.05.27.63.63,0,0,1-.1.29,1.68,1.68,0,0,1-.2.29l-.26.31-.27.31c-.15.2-.31.39-.47.57a6.26,6.26,0,0,1-.5.53,4,4,0,0,1-.56.44,3.18,3.18,0,0,1-.67.32h-.14c-.05,0-.07-.05-.07-.15a3.27,3.27,0,0,1,0-.4l.26-2.52a.7.7,0,0,1,.16-.39,1,1,0,0,1,.32-.21,1.34,1.34,0,0,1,.4-.07h.38l.06,0,0-.2v0l0,0-4.15-.43L58,12l0,.21,0,.05.41.1a2,2,0,0,1,.39.18.72.72,0,0,1,.26.26.54.54,0,0,1,.08.36Z"/><path class="cls-1" d="M66.63,21.49l0,.08v0l0,0L73.38,24h.06l0,0,.93-2.06,0-.07-.06-.05h-.16l-.12.09a2.74,2.74,0,0,1-.22.38,2.26,2.26,0,0,1-.37.39,1.45,1.45,0,0,1-.5.24,1,1,0,0,1-.62,0l-1.59-.55-.23-.1L70.34,22l-.08-.2a.52.52,0,0,1,0-.29L71.18,19l.08,0,1.65.57a1.25,1.25,0,0,1,.28.15.44.44,0,0,1,.2.24.82.82,0,0,1,.07.37,1.9,1.9,0,0,1-.11.55v0l0,0,.22.08h0l0,0,.92-2.66,0-.06-.22-.08-.07,0a1.43,1.43,0,0,1-.22.43,1,1,0,0,1-.27.22.63.63,0,0,1-.3,0,.77.77,0,0,1-.3-.06l-1.67-.58,0-.08,1-2.77.1,0,2.08.72a.81.81,0,0,1,.29.25.88.88,0,0,1,.13.3,1.13,1.13,0,0,1,0,.32,1.65,1.65,0,0,1,0,.31c0,.09,0,.18-.05.26v.2l.05,0,.09.05h.1l.06,0,.54-1.9v-.19l-.13-.09-5.8-2h0l0,0-.08.23v0l0,0,.12,0c.13.06.25.13.37.2a1.45,1.45,0,0,1,.29.26.73.73,0,0,1,.17.31.64.64,0,0,1,0,.4l-2.07,6a.78.78,0,0,1-.3.43.77.77,0,0,1-.42.1,1.86,1.86,0,0,1-.49-.1,4.91,4.91,0,0,0-.51-.15l-.12-.05h-.05l0,0Z"/><path class="cls-1" d="M77,25.61l3.12,2.44h0l0,0,.21-.26v0l0,0a2.68,2.68,0,0,1-.3-.28,1.35,1.35,0,0,1-.2-.31.76.76,0,0,1-.05-.33.61.61,0,0,1,.15-.34l1.68-2.14.06,0,.07,0L85.2,27l0,.06,0,.08-1.64,2.09a.54.54,0,0,1-.4.23,1.15,1.15,0,0,1-.48-.07,2.16,2.16,0,0,1-.48-.24l-.36-.25h-.07l-.21.27v0l0,0L85.1,32h.07l.2-.26v-.07a2,2,0,0,1-.43-.48.79.79,0,0,1-.12-.38,1.18,1.18,0,0,1,0-.28l.14-.26,3.77-4.8a1.15,1.15,0,0,1,.34-.3.68.68,0,0,1,.34-.06.73.73,0,0,1,.32.09,2,2,0,0,1,.31.19h.06l.2-.27,0,0,0,0-3.24-2.54H87l-.21.26v.07c.1.09.21.2.32.32a1.84,1.84,0,0,1,.27.37.86.86,0,0,1,.13.39.45.45,0,0,1-.11.36l-1.63,2.08-.06.05-.08,0-3.38-2.65-.05-.07,0-.07,1.57-2a1.28,1.28,0,0,1,.34-.3.8.8,0,0,1,.33-.08.91.91,0,0,1,.31.09,1.21,1.21,0,0,1,.3.2h.06l.21-.27v0l0,0-2.87-2.26-.06,0-.21.26v.07a1.42,1.42,0,0,1,.27.28,1,1,0,0,1,.15.28.61.61,0,0,1,0,.3.83.83,0,0,1-.17.32L78.7,25.26a.91.91,0,0,1-.37.3.68.68,0,0,1-.37.05,1.12,1.12,0,0,1-.35-.12,3.62,3.62,0,0,1-.32-.22h0l0,0-.2.26,0,0Z"/><path class="cls-1" d="M85.08,31.94,85,32v.07l4.4,5.63,0,0h.07l1.9-1.23,0-.07,0-.07-.13-.09h-.15a3.43,3.43,0,0,1-.39.2,2.19,2.19,0,0,1-.52.12,1.3,1.3,0,0,1-.55-.06,1,1,0,0,1-.5-.37l-1-1.33L88,34.61l-.07-.22,0-.22a.72.72,0,0,1,.19-.22l2.13-1.65h.08l1.07,1.37a1.17,1.17,0,0,1,.17.28.62.62,0,0,1,0,.31,1,1,0,0,1-.15.35,1.66,1.66,0,0,1-.4.4v.07l.14.18,0,0h0l2.23-1.73v-.07l-.15-.19h-.07a1.46,1.46,0,0,1-.43.24.83.83,0,0,1-.34,0,.7.7,0,0,1-.28-.12L92,33.22,91,31.83v-.08l2.32-1.81h.11l1.35,1.74a.75.75,0,0,1,.11.36.83.83,0,0,1,0,.32,1.12,1.12,0,0,1-.16.28l-.21.23-.18.2-.11.16v.08l.06.08.07.07h.06l1.49-1.3.1-.16-.07-.15L92.1,27l0,0,0,0-.19.14,0,0v0l.08.11c.07.12.14.24.2.37a1.73,1.73,0,0,1,.11.37.69.69,0,0,1,0,.35.67.67,0,0,1-.25.32l-5,3.88a.79.79,0,0,1-.49.2.7.7,0,0,1-.41-.14,1.93,1.93,0,0,1-.35-.35l-.35-.4-.08-.11,0,0h0Z"/><path class="cls-1" d="M92.24,40.49l5.44-3a1.34,1.34,0,0,1,.45-.17.66.66,0,0,1,.32,0,.7.7,0,0,1,.25.21,2.37,2.37,0,0,1,.21.33l0,0h0l.29-.16,0,0v-.05l-1.75-3.19-.06,0-.29.16,0,.06a2.53,2.53,0,0,1,.15.36.73.73,0,0,1,0,.32.61.61,0,0,1-.11.28.89.89,0,0,1-.27.22l-5.45,3a1.3,1.3,0,0,1-.44.17.7.7,0,0,1-.33,0,.8.8,0,0,1-.25-.21,2.37,2.37,0,0,1-.21-.33l0,0h0l-.3.16,0,0v0l1.75,3.19,0,0,0,0,.29-.16,0-.06a2.68,2.68,0,0,1-.16-.36.91.91,0,0,1,0-.32.54.54,0,0,1,.11-.27A.82.82,0,0,1,92.24,40.49Z"/><path class="cls-1" d="M92.19,42.3l1,3.24,0,0h0l.26-.08h0v0l0-.18a1.56,1.56,0,0,1,0-.27,1.66,1.66,0,0,1,0-.32,1.12,1.12,0,0,1,0-.31.87.87,0,0,1,.14-.27.57.57,0,0,1,.26-.16l5.26-1.62h.07v0l0,.07-4.45,7.46a.78.78,0,0,0-.13.38.75.75,0,0,0,0,.28l.06.15.12.14.14.09h.18l7-2.15a.43.43,0,0,1,.33,0,1,1,0,0,1,.31.24,1.31,1.31,0,0,1,.25.32,1.07,1.07,0,0,1,.14.29l0,0h0l.26-.08,0,0v0l-1-3.24,0,0h0l-.26.08,0,0v0l.09.3a1.71,1.71,0,0,1,.09.5.53.53,0,0,1-.15.37,1.48,1.48,0,0,1-.49.32c-.23.1-.54.21-.92.33l-3.5,1.08h0l0,0v0l0-.05,4.06-6.81-.82-2.66,0,0h0l-.25.08,0,0v0c0,.06,0,.15.07.27a2.19,2.19,0,0,1,0,.36,1.16,1.16,0,0,1,0,.34A.33.33,0,0,1,100,41l-5.88,1.81a3.34,3.34,0,0,1-.4.1,1.45,1.45,0,0,1-.35,0,1.07,1.07,0,0,1-.32-.06.61.61,0,0,1-.26-.19l-.06-.09,0-.14-.06-.16,0-.15-.06,0-.26.08,0,0Z"/><path class="cls-1" d="M95.31,52.34l-.09,0-.06.07,0,.13.31,7.85,0,.11.09,0h.24l2.15,0h.29l0,0,0-.07v-.27l0-.07-.06,0a4.71,4.71,0,0,1-.59-.06,2.62,2.62,0,0,1-.64-.17,1.59,1.59,0,0,1-.52-.35.81.81,0,0,1-.22-.56l-.16-3.92,0-.18.12-.11.12.05.11.07L103.61,60l.25.07h.07l.09,0,.07,0,0,0L103.85,53v0l-.07-.06-.07,0h-2.2v.22l0,.19.09.1.57.09.26,0a.72.72,0,0,1,.27.15.91.91,0,0,1,.2.24,1.08,1.08,0,0,1,.13.29,1,1,0,0,1,0,.3l.13,3.07v.08l0,0-.06,0-7.43-5.28-.13-.07-.14,0Z"/><path class="cls-1" d="M95.56,61h-.12l0,0-1.29,7,0,.06,0,0,2.18.61.06,0,0-.07,0-.16-.11-.1a3.65,3.65,0,0,1-.41-.17,2.45,2.45,0,0,1-.44-.3,1.52,1.52,0,0,1-.32-.46,1,1,0,0,1,0-.61l.31-1.66.06-.25.11-.2.19-.12a.7.7,0,0,1,.29,0l2.65.49,0,.07-.32,1.71a1.58,1.58,0,0,1-.09.31.66.66,0,0,1-.21.23.85.85,0,0,1-.36.13,1.62,1.62,0,0,1-.56,0h0l0,0,0,.24v0l0,0,2.77.51.06,0,0-.23,0-.06a1.54,1.54,0,0,1-.46-.16.72.72,0,0,1-.25-.24.56.56,0,0,1-.1-.28,1.06,1.06,0,0,1,0-.31l.32-1.73.07,0,2.89.53.06.1L102.17,68a.85.85,0,0,1-.21.32.65.65,0,0,1-.27.17,1.08,1.08,0,0,1-.31.07c-.11,0-.22,0-.32,0h-.27l-.19,0,0,.06,0,.1v.09l0,.06,2,.25a.22.22,0,0,0,.18,0l.07-.15,1.11-6v0l0,0-.23,0h0l0,0,0,.12-.15.4a1.85,1.85,0,0,1-.21.33.83.83,0,0,1-.28.21.75.75,0,0,1-.4,0l-6.21-1.14a.77.77,0,0,1-.47-.23.74.74,0,0,1-.16-.4,1.72,1.72,0,0,1,0-.5c0-.18.06-.35.08-.52l0-.14v0h0Z"/></g></g></svg>