<svg id="Layer_1" data-name="Layer 1" xmlns="http://www.w3.org/2000/svg" viewBox="0 0 11552.5 621.4"><defs><style>.cls-1,.cls-2,.cls-3{fill:none;stroke:#000;stroke-miterlimit:17;stroke-width:0.15px;}.cls-2{stroke-dasharray:5 5;}.cls-3{stroke-dasharray:5.02 5.02;}</style></defs><title>linework</title><line class="cls-1" x1="683.56" y1="616.14" x2="683.56" y2="613.64"/><line class="cls-2" x1="683.56" y1="608.64" x2="683.56" y2="10.73"/><line class="cls-1" x1="683.56" y1="8.23" x2="683.56" y2="5.73"/><line class="cls-1" x1="741.98" y1="617.89" x2="741.98" y2="615.39"/><line class="cls-3" x1="741.98" y1="610.38" x2="741.98" y2="10.74"/><line class="cls-1" x1="741.98" y1="8.23" x2="741.98" y2="5.73"/><line class="cls-1" x1="865.51" y1="617.89" x2="865.51" y2="615.39"/><line class="cls-3" x1="865.51" y1="610.38" x2="865.51" y2="10.74"/><line class="cls-1" x1="865.51" y1="8.23" x2="865.51" y2="5.73"/><line class="cls-1" x1="802.64" y1="617.02" x2="802.64" y2="614.52"/><line class="cls-3" x1="802.64" y1="609.5" x2="802.64" y2="9.86"/><line class="cls-1" x1="802.64" y1="7.36" x2="802.64" y2="4.86"/><line class="cls-1" x1="424.61" y1="614.38" x2="424.61" y2="611.88"/><line class="cls-2" x1="424.61" y1="606.88" x2="424.61" y2="8.98"/><line class="cls-1" x1="424.61" y1="6.48" x2="424.61" y2="3.98"/><line class="cls-1" x1="483.02" y1="616.14" x2="483.02" y2="613.64"/><line class="cls-3" x1="483.02" y1="608.62" x2="483.02" y2="8.99"/><line class="cls-1" x1="483.02" y1="6.48" x2="483.02" y2="3.98"/><line class="cls-1" x1="606.56" y1="616.14" x2="606.56" y2="613.64"/><line class="cls-3" x1="606.56" y1="608.62" x2="606.56" y2="8.99"/><line class="cls-1" x1="606.56" y1="6.48" x2="606.56" y2="3.98"/><line class="cls-1" x1="543.69" y1="615.26" x2="543.69" y2="612.76"/><line class="cls-3" x1="543.69" y1="607.74" x2="543.69" y2="8.11"/><line class="cls-1" x1="543.69" y1="5.6" x2="543.69" y2="3.1"/><line class="cls-1" x1="1191.11" y1="619.65" x2="1191.11" y2="617.15"/><line class="cls-2" x1="1191.11" y1="612.15" x2="1191.11" y2="14.24"/><line class="cls-1" x1="1191.11" y1="11.74" x2="1191.11" y2="9.24"/><line class="cls-1" x1="1249.53" y1="621.4" x2="1249.53" y2="618.9"/><line class="cls-3" x1="1249.53" y1="613.89" x2="1249.53" y2="14.25"/><line class="cls-1" x1="1249.53" y1="11.74" x2="1249.53" y2="9.24"/><line class="cls-1" x1="1373.06" y1="621.4" x2="1373.06" y2="618.9"/><line class="cls-3" x1="1373.06" y1="613.89" x2="1373.06" y2="14.25"/><line class="cls-1" x1="1373.06" y1="11.74" x2="1373.06" y2="9.24"/><line class="cls-1" x1="1310.19" y1="620.53" x2="1310.19" y2="618.03"/><line class="cls-3" x1="1310.19" y1="613.01" x2="1310.19" y2="13.37"/><line class="cls-1" x1="1310.19" y1="10.87" x2="1310.19" y2="8.37"/><line class="cls-1" x1="932.15" y1="617.89" x2="932.15" y2="615.39"/><line class="cls-2" x1="932.15" y1="610.39" x2="932.15" y2="12.49"/><line class="cls-1" x1="932.15" y1="9.99" x2="932.15" y2="7.49"/><line class="cls-1" x1="990.57" y1="619.65" x2="990.57" y2="617.15"/><line class="cls-3" x1="990.57" y1="612.13" x2="990.57" y2="12.5"/><line class="cls-1" x1="990.57" y1="9.99" x2="990.57" y2="7.49"/><line class="cls-1" x1="1114.11" y1="619.65" x2="1114.11" y2="617.15"/><line class="cls-3" x1="1114.11" y1="612.13" x2="1114.11" y2="12.5"/><line class="cls-1" x1="1114.11" y1="9.99" x2="1114.11" y2="7.49"/><line class="cls-1" x1="1051.24" y1="618.77" x2="1051.24" y2="616.27"/><line class="cls-3" x1="1051.24" y1="611.25" x2="1051.24" y2="11.62"/><line class="cls-1" x1="1051.24" y1="9.11" x2="1051.24" y2="6.61"/><line class="cls-1" x1="1698.65" y1="619.65" x2="1698.65" y2="617.15"/><line class="cls-2" x1="1698.65" y1="612.15" x2="1698.65" y2="14.24"/><line class="cls-1" x1="1698.65" y1="11.74" x2="1698.65" y2="9.24"/><line class="cls-1" x1="1757.07" y1="621.4" x2="1757.07" y2="618.9"/><line class="cls-3" x1="1757.07" y1="613.89" x2="1757.07" y2="14.25"/><line class="cls-1" x1="1757.07" y1="11.74" x2="1757.07" y2="9.24"/><line class="cls-1" x1="1880.61" y1="621.4" x2="1880.61" y2="618.9"/><line class="cls-3" x1="1880.61" y1="613.89" x2="1880.61" y2="14.25"/><line class="cls-1" x1="1880.61" y1="11.74" x2="1880.61" y2="9.24"/><line class="cls-1" x1="1817.74" y1="620.53" x2="1817.74" y2="618.03"/><line class="cls-3" x1="1817.74" y1="613.01" x2="1817.74" y2="13.37"/><line class="cls-1" x1="1817.74" y1="10.87" x2="1817.74" y2="8.37"/><line class="cls-1" x1="1439.7" y1="617.89" x2="1439.7" y2="615.39"/><line class="cls-2" x1="1439.7" y1="610.39" x2="1439.7" y2="12.49"/><line class="cls-1" x1="1439.7" y1="9.99" x2="1439.7" y2="7.49"/><line class="cls-1" x1="1498.12" y1="619.65" x2="1498.12" y2="617.15"/><line class="cls-3" x1="1498.12" y1="612.13" x2="1498.12" y2="12.5"/><line class="cls-1" x1="1498.12" y1="9.99" x2="1498.12" y2="7.49"/><line class="cls-1" x1="1621.65" y1="619.65" x2="1621.65" y2="617.15"/><line class="cls-3" x1="1621.65" y1="612.13" x2="1621.65" y2="12.5"/><line class="cls-1" x1="1621.65" y1="9.99" x2="1621.65" y2="7.49"/><line class="cls-1" x1="1558.78" y1="618.77" x2="1558.78" y2="616.27"/><line class="cls-3" x1="1558.78" y1="611.25" x2="1558.78" y2="11.62"/><line class="cls-1" x1="1558.78" y1="9.11" x2="1558.78" y2="6.61"/><line class="cls-1" x1="184.23" y1="614.82" x2="184.23" y2="612.32"/><line class="cls-2" x1="184.23" y1="607.32" x2="184.23" y2="9.42"/><line class="cls-1" x1="184.23" y1="6.92" x2="184.23" y2="4.42"/><line class="cls-1" x1="242.65" y1="616.58" x2="242.65" y2="614.08"/><line class="cls-3" x1="242.65" y1="609.06" x2="242.65" y2="9.43"/><line class="cls-1" x1="242.65" y1="6.92" x2="242.65" y2="4.42"/><line class="cls-1" x1="366.19" y1="616.58" x2="366.19" y2="614.08"/><line class="cls-3" x1="366.19" y1="609.06" x2="366.19" y2="9.43"/><line class="cls-1" x1="366.19" y1="6.92" x2="366.19" y2="4.42"/><line class="cls-1" x1="303.32" y1="615.7" x2="303.32" y2="613.2"/><line class="cls-3" x1="303.32" y1="608.18" x2="303.32" y2="8.55"/><line class="cls-1" x1="303.32" y1="6.04" x2="303.32" y2="3.54"/><line class="cls-1" x1="0.08" y1="618.33" x2="0.08" y2="615.83"/><line class="cls-3" x1="0.08" y1="610.81" x2="0.08" y2="11.18"/><line class="cls-1" x1="0.08" y1="8.67" x2="0.08" y2="6.17"/><line class="cls-1" x1="123.61" y1="618.33" x2="123.61" y2="615.83"/><line class="cls-3" x1="123.61" y1="610.81" x2="123.61" y2="11.18"/><line class="cls-1" x1="123.61" y1="8.67" x2="123.61" y2="6.17"/><line class="cls-1" x1="60.74" y1="617.46" x2="60.74" y2="614.96"/><line class="cls-3" x1="60.74" y1="609.94" x2="60.74" y2="10.3"/><line class="cls-1" x1="60.74" y1="7.79" x2="60.74" y2="5.29"/><line class="cls-1" x1="2628.67" y1="616.14" x2="2628.67" y2="613.64"/><line class="cls-2" x1="2628.67" y1="608.64" x2="2628.67" y2="10.73"/><line class="cls-1" x1="2628.67" y1="8.23" x2="2628.67" y2="5.73"/><line class="cls-1" x1="2687.09" y1="617.89" x2="2687.09" y2="615.39"/><line class="cls-3" x1="2687.09" y1="610.38" x2="2687.09" y2="10.74"/><line class="cls-1" x1="2687.09" y1="8.23" x2="2687.09" y2="5.73"/><line class="cls-1" x1="2810.62" y1="617.89" x2="2810.62" y2="615.39"/><line class="cls-3" x1="2810.62" y1="610.38" x2="2810.62" y2="10.74"/><line class="cls-1" x1="2810.62" y1="8.23" x2="2810.62" y2="5.73"/><line class="cls-1" x1="2747.75" y1="617.02" x2="2747.75" y2="614.52"/><line class="cls-3" x1="2747.75" y1="609.5" x2="2747.75" y2="9.86"/><line class="cls-1" x1="2747.75" y1="7.36" x2="2747.75" y2="4.86"/><line class="cls-1" x1="2369.72" y1="614.38" x2="2369.72" y2="611.88"/><line class="cls-2" x1="2369.72" y1="606.88" x2="2369.72" y2="8.98"/><line class="cls-1" x1="2369.72" y1="6.48" x2="2369.72" y2="3.98"/><line class="cls-1" x1="2428.14" y1="616.14" x2="2428.14" y2="613.64"/><line class="cls-3" x1="2428.14" y1="608.62" x2="2428.14" y2="8.99"/><line class="cls-1" x1="2428.14" y1="6.48" x2="2428.14" y2="3.98"/><line class="cls-1" x1="2551.67" y1="616.14" x2="2551.67" y2="613.64"/><line class="cls-3" x1="2551.67" y1="608.62" x2="2551.67" y2="8.99"/><line class="cls-1" x1="2551.67" y1="6.48" x2="2551.67" y2="3.98"/><line class="cls-1" x1="2488.8" y1="615.26" x2="2488.8" y2="612.76"/><line class="cls-3" x1="2488.8" y1="607.74" x2="2488.8" y2="8.11"/><line class="cls-1" x1="2488.8" y1="5.6" x2="2488.8" y2="3.1"/><line class="cls-1" x1="3136.22" y1="619.65" x2="3136.22" y2="617.15"/><line class="cls-2" x1="3136.22" y1="612.15" x2="3136.22" y2="14.24"/><line class="cls-1" x1="3136.22" y1="11.74" x2="3136.22" y2="9.24"/><line class="cls-1" x1="3194.64" y1="621.4" x2="3194.64" y2="618.9"/><line class="cls-3" x1="3194.64" y1="613.89" x2="3194.64" y2="14.25"/><line class="cls-1" x1="3194.64" y1="11.74" x2="3194.64" y2="9.24"/><line class="cls-1" x1="3318.17" y1="621.4" x2="3318.17" y2="618.9"/><line class="cls-3" x1="3318.17" y1="613.89" x2="3318.17" y2="14.25"/><line class="cls-1" x1="3318.17" y1="11.74" x2="3318.17" y2="9.24"/><line class="cls-1" x1="3255.3" y1="620.53" x2="3255.3" y2="618.03"/><line class="cls-3" x1="3255.3" y1="613.01" x2="3255.3" y2="13.37"/><line class="cls-1" x1="3255.3" y1="10.87" x2="3255.3" y2="8.37"/><line class="cls-1" x1="2877.27" y1="617.89" x2="2877.27" y2="615.39"/><line class="cls-2" x1="2877.27" y1="610.39" x2="2877.27" y2="12.49"/><line class="cls-1" x1="2877.27" y1="9.99" x2="2877.27" y2="7.49"/><line class="cls-1" x1="2935.68" y1="619.65" x2="2935.68" y2="617.15"/><line class="cls-3" x1="2935.68" y1="612.13" x2="2935.68" y2="12.5"/><line class="cls-1" x1="2935.68" y1="9.99" x2="2935.68" y2="7.49"/><line class="cls-1" x1="3059.22" y1="619.65" x2="3059.22" y2="617.15"/><line class="cls-3" x1="3059.22" y1="612.13" x2="3059.22" y2="12.5"/><line class="cls-1" x1="3059.22" y1="9.99" x2="3059.22" y2="7.49"/><line class="cls-1" x1="2996.35" y1="618.77" x2="2996.35" y2="616.27"/><line class="cls-3" x1="2996.35" y1="611.25" x2="2996.35" y2="11.62"/><line class="cls-1" x1="2996.35" y1="9.11" x2="2996.35" y2="6.61"/><line class="cls-1" x1="3643.77" y1="619.65" x2="3643.77" y2="617.15"/><line class="cls-2" x1="3643.77" y1="612.15" x2="3643.77" y2="14.24"/><line class="cls-1" x1="3643.77" y1="11.74" x2="3643.77" y2="9.24"/><line class="cls-1" x1="3702.18" y1="621.4" x2="3702.18" y2="618.9"/><line class="cls-3" x1="3702.18" y1="613.89" x2="3702.18" y2="14.25"/><line class="cls-1" x1="3702.18" y1="11.74" x2="3702.18" y2="9.24"/><line class="cls-1" x1="3825.72" y1="621.4" x2="3825.72" y2="618.9"/><line class="cls-3" x1="3825.72" y1="613.89" x2="3825.72" y2="14.25"/><line class="cls-1" x1="3825.72" y1="11.74" x2="3825.72" y2="9.24"/><line class="cls-1" x1="3762.85" y1="620.53" x2="3762.85" y2="618.03"/><line class="cls-3" x1="3762.85" y1="613.01" x2="3762.85" y2="13.37"/><line class="cls-1" x1="3762.85" y1="10.87" x2="3762.85" y2="8.37"/><line class="cls-1" x1="3384.81" y1="617.89" x2="3384.81" y2="615.39"/><line class="cls-2" x1="3384.81" y1="610.39" x2="3384.81" y2="12.49"/><line class="cls-1" x1="3384.81" y1="9.99" x2="3384.81" y2="7.49"/><line class="cls-1" x1="3443.23" y1="619.65" x2="3443.23" y2="617.15"/><line class="cls-3" x1="3443.23" y1="612.13" x2="3443.23" y2="12.5"/><line class="cls-1" x1="3443.23" y1="9.99" x2="3443.23" y2="7.49"/><line class="cls-1" x1="3566.77" y1="619.65" x2="3566.77" y2="617.15"/><line class="cls-3" x1="3566.77" y1="612.13" x2="3566.77" y2="12.5"/><line class="cls-1" x1="3566.77" y1="9.99" x2="3566.77" y2="7.49"/><line class="cls-1" x1="3503.9" y1="618.77" x2="3503.9" y2="616.27"/><line class="cls-3" x1="3503.9" y1="611.25" x2="3503.9" y2="11.62"/><line class="cls-1" x1="3503.9" y1="9.11" x2="3503.9" y2="6.61"/><line class="cls-1" x1="2129.35" y1="614.82" x2="2129.35" y2="612.32"/><line class="cls-2" x1="2129.35" y1="607.32" x2="2129.35" y2="9.42"/><line class="cls-1" x1="2129.35" y1="6.92" x2="2129.35" y2="4.42"/><line class="cls-1" x1="2187.76" y1="616.58" x2="2187.76" y2="614.08"/><line class="cls-3" x1="2187.76" y1="609.06" x2="2187.76" y2="9.43"/><line class="cls-1" x1="2187.76" y1="6.92" x2="2187.76" y2="4.42"/><line class="cls-1" x1="2311.3" y1="616.58" x2="2311.3" y2="614.08"/><line class="cls-3" x1="2311.3" y1="609.06" x2="2311.3" y2="9.43"/><line class="cls-1" x1="2311.3" y1="6.92" x2="2311.3" y2="4.42"/><line class="cls-1" x1="2248.43" y1="615.7" x2="2248.43" y2="613.2"/><line class="cls-3" x1="2248.43" y1="608.18" x2="2248.43" y2="8.55"/><line class="cls-1" x1="2248.43" y1="6.04" x2="2248.43" y2="3.54"/><line class="cls-1" x1="1945.19" y1="618.33" x2="1945.19" y2="615.83"/><line class="cls-3" x1="1945.19" y1="610.81" x2="1945.19" y2="11.18"/><line class="cls-1" x1="1945.19" y1="8.67" x2="1945.19" y2="6.17"/><line class="cls-1" x1="2068.72" y1="618.33" x2="2068.72" y2="615.83"/><line class="cls-3" x1="2068.72" y1="610.81" x2="2068.72" y2="11.18"/><line class="cls-1" x1="2068.72" y1="8.67" x2="2068.72" y2="6.17"/><line class="cls-1" x1="2005.85" y1="617.46" x2="2005.85" y2="614.96"/><line class="cls-3" x1="2005.85" y1="609.94" x2="2005.85" y2="10.3"/><line class="cls-1" x1="2005.85" y1="7.79" x2="2005.85" y2="5.29"/><line class="cls-1" x1="4569.32" y1="613.04" x2="4569.32" y2="610.54"/><line class="cls-2" x1="4569.32" y1="605.54" x2="4569.32" y2="7.63"/><line class="cls-1" x1="4569.32" y1="5.13" x2="4569.32" y2="2.63"/><line class="cls-1" x1="4627.74" y1="614.79" x2="4627.74" y2="612.29"/><line class="cls-3" x1="4627.74" y1="607.28" x2="4627.74" y2="7.64"/><line class="cls-1" x1="4627.74" y1="5.13" x2="4627.74" y2="2.63"/><line class="cls-1" x1="4751.28" y1="614.79" x2="4751.28" y2="612.29"/><line class="cls-3" x1="4751.28" y1="607.28" x2="4751.28" y2="7.64"/><line class="cls-1" x1="4751.28" y1="5.13" x2="4751.28" y2="2.63"/><line class="cls-1" x1="4688.4" y1="613.92" x2="4688.4" y2="611.42"/><line class="cls-3" x1="4688.4" y1="606.4" x2="4688.4" y2="6.76"/><line class="cls-1" x1="4688.4" y1="4.26" x2="4688.4" y2="1.76"/><line class="cls-1" x1="4310.37" y1="611.28" x2="4310.37" y2="608.78"/><line class="cls-2" x1="4310.37" y1="603.78" x2="4310.37" y2="5.88"/><line class="cls-1" x1="4310.37" y1="3.38" x2="4310.37" y2="0.88"/><line class="cls-1" x1="4368.79" y1="613.04" x2="4368.79" y2="610.54"/><line class="cls-3" x1="4368.79" y1="605.52" x2="4368.79" y2="5.89"/><line class="cls-1" x1="4368.79" y1="3.38" x2="4368.79" y2="0.88"/><line class="cls-1" x1="4492.32" y1="613.04" x2="4492.32" y2="610.54"/><line class="cls-3" x1="4492.32" y1="605.52" x2="4492.32" y2="5.89"/><line class="cls-1" x1="4492.32" y1="3.38" x2="4492.32" y2="0.88"/><line class="cls-1" x1="4429.45" y1="612.16" x2="4429.45" y2="609.66"/><line class="cls-3" x1="4429.45" y1="604.64" x2="4429.45" y2="5.01"/><line class="cls-1" x1="4429.45" y1="2.5" x2="4429.45"/><line class="cls-1" x1="5076.87" y1="616.55" x2="5076.87" y2="614.05"/><line class="cls-2" x1="5076.87" y1="609.05" x2="5076.87" y2="11.14"/><line class="cls-1" x1="5076.87" y1="8.64" x2="5076.87" y2="6.14"/><line class="cls-1" x1="5135.29" y1="618.3" x2="5135.29" y2="615.8"/><line class="cls-3" x1="5135.29" y1="610.79" x2="5135.29" y2="11.15"/><line class="cls-1" x1="5135.29" y1="8.64" x2="5135.29" y2="6.14"/><line class="cls-1" x1="5258.82" y1="618.3" x2="5258.82" y2="615.8"/><line class="cls-3" x1="5258.82" y1="610.79" x2="5258.82" y2="11.15"/><line class="cls-1" x1="5258.82" y1="8.64" x2="5258.82" y2="6.14"/><line class="cls-1" x1="5195.95" y1="617.43" x2="5195.95" y2="614.93"/><line class="cls-3" x1="5195.95" y1="609.91" x2="5195.95" y2="10.27"/><line class="cls-1" x1="5195.95" y1="7.77" x2="5195.95" y2="5.27"/><line class="cls-1" x1="4817.92" y1="614.79" x2="4817.92" y2="612.29"/><line class="cls-2" x1="4817.92" y1="607.29" x2="4817.92" y2="9.39"/><line class="cls-1" x1="4817.92" y1="6.89" x2="4817.92" y2="4.39"/><line class="cls-1" x1="4876.33" y1="616.55" x2="4876.33" y2="614.05"/><line class="cls-3" x1="4876.33" y1="609.03" x2="4876.33" y2="9.4"/><line class="cls-1" x1="4876.33" y1="6.89" x2="4876.33" y2="4.39"/><line class="cls-1" x1="4999.87" y1="616.55" x2="4999.87" y2="614.05"/><line class="cls-3" x1="4999.87" y1="609.03" x2="4999.87" y2="9.4"/><line class="cls-1" x1="4999.87" y1="6.89" x2="4999.87" y2="4.39"/><line class="cls-1" x1="4937" y1="615.67" x2="4937" y2="613.17"/><line class="cls-3" x1="4937" y1="608.15" x2="4937" y2="8.52"/><line class="cls-1" x1="4937" y1="6.01" x2="4937" y2="3.51"/><line class="cls-1" x1="5584.42" y1="616.55" x2="5584.42" y2="614.05"/><line class="cls-2" x1="5584.42" y1="609.05" x2="5584.42" y2="11.14"/><line class="cls-1" x1="5584.42" y1="8.64" x2="5584.42" y2="6.14"/><line class="cls-1" x1="5642.83" y1="618.3" x2="5642.83" y2="615.8"/><line class="cls-3" x1="5642.83" y1="610.79" x2="5642.83" y2="11.15"/><line class="cls-1" x1="5642.83" y1="8.64" x2="5642.83" y2="6.14"/><line class="cls-1" x1="5766.37" y1="618.3" x2="5766.37" y2="615.8"/><line class="cls-3" x1="5766.37" y1="610.79" x2="5766.37" y2="11.15"/><line class="cls-1" x1="5766.37" y1="8.64" x2="5766.37" y2="6.14"/><line class="cls-1" x1="5703.5" y1="617.43" x2="5703.5" y2="614.93"/><line class="cls-3" x1="5703.5" y1="609.91" x2="5703.5" y2="10.27"/><line class="cls-1" x1="5703.5" y1="7.77" x2="5703.5" y2="5.27"/><line class="cls-1" x1="5325.46" y1="614.79" x2="5325.46" y2="612.29"/><line class="cls-2" x1="5325.46" y1="607.29" x2="5325.46" y2="9.39"/><line class="cls-1" x1="5325.46" y1="6.89" x2="5325.46" y2="4.39"/><line class="cls-1" x1="5383.88" y1="616.55" x2="5383.88" y2="614.05"/><line class="cls-3" x1="5383.88" y1="609.03" x2="5383.88" y2="9.4"/><line class="cls-1" x1="5383.88" y1="6.89" x2="5383.88" y2="4.39"/><line class="cls-1" x1="5507.42" y1="616.55" x2="5507.42" y2="614.05"/><line class="cls-3" x1="5507.42" y1="609.03" x2="5507.42" y2="9.4"/><line class="cls-1" x1="5507.42" y1="6.89" x2="5507.42" y2="4.39"/><line class="cls-1" x1="5444.55" y1="615.67" x2="5444.55" y2="613.17"/><line class="cls-3" x1="5444.55" y1="608.15" x2="5444.55" y2="8.52"/><line class="cls-1" x1="5444.55" y1="6.01" x2="5444.55" y2="3.51"/><line class="cls-1" x1="4070" y1="611.72" x2="4070" y2="609.22"/><line class="cls-2" x1="4070" y1="604.22" x2="4070" y2="6.32"/><line class="cls-1" x1="4070" y1="3.82" x2="4070" y2="1.32"/><line class="cls-1" x1="4128.41" y1="613.48" x2="4128.41" y2="610.98"/><line class="cls-3" x1="4128.41" y1="605.96" x2="4128.41" y2="6.33"/><line class="cls-1" x1="4128.41" y1="3.82" x2="4128.41" y2="1.32"/><line class="cls-1" x1="4251.95" y1="613.48" x2="4251.95" y2="610.98"/><line class="cls-3" x1="4251.95" y1="605.96" x2="4251.95" y2="6.33"/><line class="cls-1" x1="4251.95" y1="3.82" x2="4251.95" y2="1.32"/><line class="cls-1" x1="4189.08" y1="612.6" x2="4189.08" y2="610.1"/><line class="cls-3" x1="4189.08" y1="605.08" x2="4189.08" y2="5.45"/><line class="cls-1" x1="4189.08" y1="2.94" x2="4189.08" y2="0.44"/><line class="cls-1" x1="3885.84" y1="615.23" x2="3885.84" y2="612.73"/><line class="cls-3" x1="3885.84" y1="607.71" x2="3885.84" y2="8.08"/><line class="cls-1" x1="3885.84" y1="5.57" x2="3885.84" y2="3.07"/><line class="cls-1" x1="4009.37" y1="615.23" x2="4009.37" y2="612.73"/><line class="cls-3" x1="4009.37" y1="607.71" x2="4009.37" y2="8.08"/><line class="cls-1" x1="4009.37" y1="5.57" x2="4009.37" y2="3.07"/><line class="cls-1" x1="3946.5" y1="614.35" x2="3946.5" y2="611.85"/><line class="cls-3" x1="3946.5" y1="606.84" x2="3946.5" y2="7.2"/><line class="cls-1" x1="3946.5" y1="4.69" x2="3946.5" y2="2.19"/><line class="cls-1" x1="6514.43" y1="613.04" x2="6514.43" y2="610.54"/><line class="cls-2" x1="6514.43" y1="605.54" x2="6514.43" y2="7.63"/><line class="cls-1" x1="6514.43" y1="5.13" x2="6514.43" y2="2.63"/><line class="cls-1" x1="6572.85" y1="614.79" x2="6572.85" y2="612.29"/><line class="cls-3" x1="6572.85" y1="607.28" x2="6572.85" y2="7.64"/><line class="cls-1" x1="6572.85" y1="5.13" x2="6572.85" y2="2.63"/><line class="cls-1" x1="6696.39" y1="614.79" x2="6696.39" y2="612.29"/><line class="cls-3" x1="6696.39" y1="607.28" x2="6696.39" y2="7.64"/><line class="cls-1" x1="6696.39" y1="5.13" x2="6696.39" y2="2.63"/><line class="cls-1" x1="6633.52" y1="613.92" x2="6633.52" y2="611.42"/><line class="cls-3" x1="6633.52" y1="606.4" x2="6633.52" y2="6.76"/><line class="cls-1" x1="6633.52" y1="4.26" x2="6633.52" y2="1.76"/><line class="cls-1" x1="6255.48" y1="611.28" x2="6255.48" y2="608.78"/><line class="cls-2" x1="6255.48" y1="603.78" x2="6255.48" y2="5.88"/><line class="cls-1" x1="6255.48" y1="3.38" x2="6255.48" y2="0.88"/><line class="cls-1" x1="6313.9" y1="613.04" x2="6313.9" y2="610.54"/><line class="cls-3" x1="6313.9" y1="605.52" x2="6313.9" y2="5.89"/><line class="cls-1" x1="6313.9" y1="3.38" x2="6313.9" y2="0.88"/><line class="cls-1" x1="6437.43" y1="613.04" x2="6437.43" y2="610.54"/><line class="cls-3" x1="6437.43" y1="605.52" x2="6437.43" y2="5.89"/><line class="cls-1" x1="6437.43" y1="3.38" x2="6437.43" y2="0.88"/><line class="cls-1" x1="6374.56" y1="612.16" x2="6374.56" y2="609.66"/><line class="cls-3" x1="6374.56" y1="604.64" x2="6374.56" y2="5.01"/><line class="cls-1" x1="6374.56" y1="2.5" x2="6374.56"/><line class="cls-1" x1="7021.98" y1="616.55" x2="7021.98" y2="614.05"/><line class="cls-2" x1="7021.98" y1="609.05" x2="7021.98" y2="11.14"/><line class="cls-1" x1="7021.98" y1="8.64" x2="7021.98" y2="6.14"/><line class="cls-1" x1="7080.4" y1="618.3" x2="7080.4" y2="615.8"/><line class="cls-3" x1="7080.4" y1="610.79" x2="7080.4" y2="11.15"/><line class="cls-1" x1="7080.4" y1="8.64" x2="7080.4" y2="6.14"/><line class="cls-1" x1="7203.93" y1="618.3" x2="7203.93" y2="615.8"/><line class="cls-3" x1="7203.93" y1="610.79" x2="7203.93" y2="11.15"/><line class="cls-1" x1="7203.93" y1="8.64" x2="7203.93" y2="6.14"/><line class="cls-1" x1="7141.06" y1="617.43" x2="7141.06" y2="614.93"/><line class="cls-3" x1="7141.06" y1="609.91" x2="7141.06" y2="10.27"/><line class="cls-1" x1="7141.06" y1="7.77" x2="7141.06" y2="5.27"/><line class="cls-1" x1="6763.03" y1="614.79" x2="6763.03" y2="612.29"/><line class="cls-2" x1="6763.03" y1="607.29" x2="6763.03" y2="9.39"/><line class="cls-1" x1="6763.03" y1="6.89" x2="6763.03" y2="4.39"/><line class="cls-1" x1="6821.45" y1="616.55" x2="6821.45" y2="614.05"/><line class="cls-3" x1="6821.45" y1="609.03" x2="6821.45" y2="9.4"/><line class="cls-1" x1="6821.45" y1="6.89" x2="6821.45" y2="4.39"/><line class="cls-1" x1="6944.98" y1="616.55" x2="6944.98" y2="614.05"/><line class="cls-3" x1="6944.98" y1="609.03" x2="6944.98" y2="9.4"/><line class="cls-1" x1="6944.98" y1="6.89" x2="6944.98" y2="4.39"/><line class="cls-1" x1="6882.11" y1="615.67" x2="6882.11" y2="613.17"/><line class="cls-3" x1="6882.11" y1="608.15" x2="6882.11" y2="8.52"/><line class="cls-1" x1="6882.11" y1="6.01" x2="6882.11" y2="3.51"/><line class="cls-1" x1="7529.53" y1="616.55" x2="7529.53" y2="614.05"/><line class="cls-2" x1="7529.53" y1="609.05" x2="7529.53" y2="11.14"/><line class="cls-1" x1="7529.53" y1="8.64" x2="7529.53" y2="6.14"/><line class="cls-1" x1="7587.95" y1="618.3" x2="7587.95" y2="615.8"/><line class="cls-3" x1="7587.95" y1="610.79" x2="7587.95" y2="11.15"/><line class="cls-1" x1="7587.95" y1="8.64" x2="7587.95" y2="6.14"/><line class="cls-1" x1="7711.48" y1="618.3" x2="7711.48" y2="615.8"/><line class="cls-3" x1="7711.48" y1="610.79" x2="7711.48" y2="11.15"/><line class="cls-1" x1="7711.48" y1="8.64" x2="7711.48" y2="6.14"/><line class="cls-1" x1="7648.61" y1="617.43" x2="7648.61" y2="614.93"/><line class="cls-3" x1="7648.61" y1="609.91" x2="7648.61" y2="10.27"/><line class="cls-1" x1="7648.61" y1="7.77" x2="7648.61" y2="5.27"/><line class="cls-1" x1="7270.57" y1="614.79" x2="7270.57" y2="612.29"/><line class="cls-2" x1="7270.57" y1="607.29" x2="7270.57" y2="9.39"/><line class="cls-1" x1="7270.57" y1="6.89" x2="7270.57" y2="4.39"/><line class="cls-1" x1="7328.99" y1="616.55" x2="7328.99" y2="614.05"/><line class="cls-3" x1="7328.99" y1="609.03" x2="7328.99" y2="9.4"/><line class="cls-1" x1="7328.99" y1="6.89" x2="7328.99" y2="4.39"/><line class="cls-1" x1="7452.53" y1="616.55" x2="7452.53" y2="614.05"/><line class="cls-3" x1="7452.53" y1="609.03" x2="7452.53" y2="9.4"/><line class="cls-1" x1="7452.53" y1="6.89" x2="7452.53" y2="4.39"/><line class="cls-1" x1="7389.66" y1="615.67" x2="7389.66" y2="613.17"/><line class="cls-3" x1="7389.66" y1="608.15" x2="7389.66" y2="8.52"/><line class="cls-1" x1="7389.66" y1="6.01" x2="7389.66" y2="3.51"/><line class="cls-1" x1="6015.11" y1="611.72" x2="6015.11" y2="609.22"/><line class="cls-2" x1="6015.11" y1="604.22" x2="6015.11" y2="6.32"/><line class="cls-1" x1="6015.11" y1="3.82" x2="6015.11" y2="1.32"/><line class="cls-1" x1="6073.53" y1="613.48" x2="6073.53" y2="610.98"/><line class="cls-3" x1="6073.53" y1="605.96" x2="6073.53" y2="6.33"/><line class="cls-1" x1="6073.53" y1="3.82" x2="6073.53" y2="1.32"/><line class="cls-1" x1="6197.06" y1="613.48" x2="6197.06" y2="610.98"/><line class="cls-3" x1="6197.06" y1="605.96" x2="6197.06" y2="6.33"/><line class="cls-1" x1="6197.06" y1="3.82" x2="6197.06" y2="1.32"/><line class="cls-1" x1="6134.19" y1="612.6" x2="6134.19" y2="610.1"/><line class="cls-3" x1="6134.19" y1="605.08" x2="6134.19" y2="5.45"/><line class="cls-1" x1="6134.19" y1="2.94" x2="6134.19" y2="0.44"/><line class="cls-1" x1="5830.95" y1="615.23" x2="5830.95" y2="612.73"/><line class="cls-3" x1="5830.95" y1="607.71" x2="5830.95" y2="8.08"/><line class="cls-1" x1="5830.95" y1="5.57" x2="5830.95" y2="3.07"/><line class="cls-1" x1="5954.48" y1="615.23" x2="5954.48" y2="612.73"/><line class="cls-3" x1="5954.48" y1="607.71" x2="5954.48" y2="8.08"/><line class="cls-1" x1="5954.48" y1="5.57" x2="5954.48" y2="3.07"/><line class="cls-1" x1="5891.61" y1="614.35" x2="5891.61" y2="611.85"/><line class="cls-3" x1="5891.61" y1="606.84" x2="5891.61" y2="7.2"/><line class="cls-1" x1="5891.61" y1="4.69" x2="5891.61" y2="2.19"/><line class="cls-1" x1="8410.26" y1="613.07" x2="8410.26" y2="610.57"/><line class="cls-2" x1="8410.26" y1="605.56" x2="8410.26" y2="7.66"/><line class="cls-1" x1="8410.26" y1="5.16" x2="8410.26" y2="2.66"/><line class="cls-1" x1="8468.68" y1="614.82" x2="8468.68" y2="612.32"/><line class="cls-3" x1="8468.68" y1="607.3" x2="8468.68" y2="7.67"/><line class="cls-1" x1="8468.68" y1="5.16" x2="8468.68" y2="2.66"/><line class="cls-1" x1="8592.22" y1="614.82" x2="8592.22" y2="612.32"/><line class="cls-3" x1="8592.22" y1="607.3" x2="8592.22" y2="7.67"/><line class="cls-1" x1="8592.22" y1="5.16" x2="8592.22" y2="2.66"/><line class="cls-1" x1="8529.35" y1="613.94" x2="8529.35" y2="611.44"/><line class="cls-3" x1="8529.35" y1="606.43" x2="8529.35" y2="6.79"/><line class="cls-1" x1="8529.35" y1="4.28" x2="8529.35" y2="1.78"/><line class="cls-1" x1="8151.31" y1="611.31" x2="8151.31" y2="608.81"/><line class="cls-2" x1="8151.31" y1="603.81" x2="8151.31" y2="5.91"/><line class="cls-1" x1="8151.31" y1="3.41" x2="8151.31" y2="0.91"/><line class="cls-1" x1="8209.73" y1="613.07" x2="8209.73" y2="610.57"/><line class="cls-3" x1="8209.73" y1="605.55" x2="8209.73" y2="5.92"/><line class="cls-1" x1="8209.73" y1="3.41" x2="8209.73" y2="0.91"/><line class="cls-1" x1="8333.26" y1="613.07" x2="8333.26" y2="610.57"/><line class="cls-3" x1="8333.26" y1="605.55" x2="8333.26" y2="5.92"/><line class="cls-1" x1="8333.26" y1="3.41" x2="8333.26" y2="0.91"/><line class="cls-1" x1="8270.39" y1="612.19" x2="8270.39" y2="609.69"/><line class="cls-3" x1="8270.39" y1="604.67" x2="8270.39" y2="5.04"/><line class="cls-1" x1="8270.39" y1="2.53" x2="8270.39" y2="0.03"/><line class="cls-1" x1="8917.81" y1="616.58" x2="8917.81" y2="614.08"/><line class="cls-2" x1="8917.81" y1="609.07" x2="8917.81" y2="11.17"/><line class="cls-1" x1="8917.81" y1="8.67" x2="8917.81" y2="6.17"/><line class="cls-1" x1="8976.23" y1="618.33" x2="8976.23" y2="615.83"/><line class="cls-3" x1="8976.23" y1="610.81" x2="8976.23" y2="11.18"/><line class="cls-1" x1="8976.23" y1="8.67" x2="8976.23" y2="6.17"/><line class="cls-1" x1="9099.76" y1="618.33" x2="9099.76" y2="615.83"/><line class="cls-3" x1="9099.76" y1="610.81" x2="9099.76" y2="11.18"/><line class="cls-1" x1="9099.76" y1="8.67" x2="9099.76" y2="6.17"/><line class="cls-1" x1="9036.89" y1="617.45" x2="9036.89" y2="614.95"/><line class="cls-3" x1="9036.89" y1="609.94" x2="9036.89" y2="10.3"/><line class="cls-1" x1="9036.89" y1="7.79" x2="9036.89" y2="5.29"/><line class="cls-1" x1="8658.86" y1="614.82" x2="8658.86" y2="612.32"/><line class="cls-2" x1="8658.86" y1="607.32" x2="8658.86" y2="9.42"/><line class="cls-1" x1="8658.86" y1="6.92" x2="8658.86" y2="4.42"/><line class="cls-1" x1="8717.27" y1="616.58" x2="8717.27" y2="614.08"/><line class="cls-3" x1="8717.27" y1="609.06" x2="8717.27" y2="9.43"/><line class="cls-1" x1="8717.27" y1="6.92" x2="8717.27" y2="4.42"/><line class="cls-1" x1="8840.81" y1="616.58" x2="8840.81" y2="614.08"/><line class="cls-3" x1="8840.81" y1="609.06" x2="8840.81" y2="9.43"/><line class="cls-1" x1="8840.81" y1="6.92" x2="8840.81" y2="4.42"/><line class="cls-1" x1="8777.94" y1="615.7" x2="8777.94" y2="613.2"/><line class="cls-3" x1="8777.94" y1="608.18" x2="8777.94" y2="8.55"/><line class="cls-1" x1="8777.94" y1="6.04" x2="8777.94" y2="3.54"/><line class="cls-1" x1="9425.36" y1="616.58" x2="9425.36" y2="614.08"/><line class="cls-2" x1="9425.36" y1="609.07" x2="9425.36" y2="11.17"/><line class="cls-1" x1="9425.36" y1="8.67" x2="9425.36" y2="6.17"/><line class="cls-1" x1="9483.78" y1="618.33" x2="9483.78" y2="615.83"/><line class="cls-3" x1="9483.78" y1="610.81" x2="9483.78" y2="11.18"/><line class="cls-1" x1="9483.78" y1="8.67" x2="9483.78" y2="6.17"/><line class="cls-1" x1="9607.31" y1="618.33" x2="9607.31" y2="615.83"/><line class="cls-3" x1="9607.31" y1="610.81" x2="9607.31" y2="11.18"/><line class="cls-1" x1="9607.31" y1="8.67" x2="9607.31" y2="6.17"/><line class="cls-1" x1="9544.44" y1="617.45" x2="9544.44" y2="614.95"/><line class="cls-3" x1="9544.44" y1="609.94" x2="9544.44" y2="10.3"/><line class="cls-1" x1="9544.44" y1="7.79" x2="9544.44" y2="5.29"/><line class="cls-1" x1="9166.4" y1="614.82" x2="9166.4" y2="612.32"/><line class="cls-2" x1="9166.4" y1="607.32" x2="9166.4" y2="9.42"/><line class="cls-1" x1="9166.4" y1="6.92" x2="9166.4" y2="4.42"/><line class="cls-1" x1="9224.82" y1="616.58" x2="9224.82" y2="614.08"/><line class="cls-3" x1="9224.82" y1="609.06" x2="9224.82" y2="9.43"/><line class="cls-1" x1="9224.82" y1="6.92" x2="9224.82" y2="4.42"/><line class="cls-1" x1="9348.36" y1="616.58" x2="9348.36" y2="614.08"/><line class="cls-3" x1="9348.36" y1="609.06" x2="9348.36" y2="9.43"/><line class="cls-1" x1="9348.36" y1="6.92" x2="9348.36" y2="4.42"/><line class="cls-1" x1="9285.49" y1="615.7" x2="9285.49" y2="613.2"/><line class="cls-3" x1="9285.49" y1="608.18" x2="9285.49" y2="8.55"/><line class="cls-1" x1="9285.49" y1="6.04" x2="9285.49" y2="3.54"/><line class="cls-1" x1="7910.94" y1="611.75" x2="7910.94" y2="609.25"/><line class="cls-2" x1="7910.94" y1="604.25" x2="7910.94" y2="6.35"/><line class="cls-1" x1="7910.94" y1="3.85" x2="7910.94" y2="1.35"/><line class="cls-1" x1="7969.35" y1="613.51" x2="7969.35" y2="611.01"/><line class="cls-3" x1="7969.35" y1="605.99" x2="7969.35" y2="6.35"/><line class="cls-1" x1="7969.35" y1="3.85" x2="7969.35" y2="1.35"/><line class="cls-1" x1="8092.89" y1="613.51" x2="8092.89" y2="611.01"/><line class="cls-3" x1="8092.89" y1="605.99" x2="8092.89" y2="6.35"/><line class="cls-1" x1="8092.89" y1="3.85" x2="8092.89" y2="1.35"/><line class="cls-1" x1="8030.02" y1="612.63" x2="8030.02" y2="610.13"/><line class="cls-3" x1="8030.02" y1="605.11" x2="8030.02" y2="5.48"/><line class="cls-1" x1="8030.02" y1="2.97" x2="8030.02" y2="0.47"/><line class="cls-1" x1="7726.78" y1="615.26" x2="7726.78" y2="612.76"/><line class="cls-3" x1="7726.78" y1="607.74" x2="7726.78" y2="8.11"/><line class="cls-1" x1="7726.78" y1="5.6" x2="7726.78" y2="3.1"/><line class="cls-1" x1="7850.31" y1="615.26" x2="7850.31" y2="612.76"/><line class="cls-3" x1="7850.31" y1="607.74" x2="7850.31" y2="8.11"/><line class="cls-1" x1="7850.31" y1="5.6" x2="7850.31" y2="3.1"/><line class="cls-1" x1="7787.44" y1="614.38" x2="7787.44" y2="611.88"/><line class="cls-3" x1="7787.44" y1="606.87" x2="7787.44" y2="7.23"/><line class="cls-1" x1="7787.44" y1="4.72" x2="7787.44" y2="2.22"/><line class="cls-1" x1="10355.37" y1="613.07" x2="10355.37" y2="610.57"/><line class="cls-2" x1="10355.37" y1="605.56" x2="10355.37" y2="7.66"/><line class="cls-1" x1="10355.37" y1="5.16" x2="10355.37" y2="2.66"/><line class="cls-1" x1="10413.79" y1="614.82" x2="10413.79" y2="612.32"/><line class="cls-3" x1="10413.79" y1="607.3" x2="10413.79" y2="7.67"/><line class="cls-1" x1="10413.79" y1="5.16" x2="10413.79" y2="2.66"/><line class="cls-1" x1="10537.33" y1="614.82" x2="10537.33" y2="612.32"/><line class="cls-3" x1="10537.33" y1="607.3" x2="10537.33" y2="7.67"/><line class="cls-1" x1="10537.33" y1="5.16" x2="10537.33" y2="2.66"/><line class="cls-1" x1="10474.46" y1="613.94" x2="10474.46" y2="611.44"/><line class="cls-3" x1="10474.46" y1="606.43" x2="10474.46" y2="6.79"/><line class="cls-1" x1="10474.46" y1="4.28" x2="10474.46" y2="1.78"/><line class="cls-1" x1="10096.42" y1="611.31" x2="10096.42" y2="608.81"/><line class="cls-2" x1="10096.42" y1="603.81" x2="10096.42" y2="5.91"/><line class="cls-1" x1="10096.42" y1="3.41" x2="10096.42" y2="0.91"/><line class="cls-1" x1="10154.84" y1="613.07" x2="10154.84" y2="610.57"/><line class="cls-3" x1="10154.84" y1="605.55" x2="10154.84" y2="5.92"/><line class="cls-1" x1="10154.84" y1="3.41" x2="10154.84" y2="0.91"/><line class="cls-1" x1="10278.37" y1="613.07" x2="10278.37" y2="610.57"/><line class="cls-3" x1="10278.37" y1="605.55" x2="10278.37" y2="5.92"/><line class="cls-1" x1="10278.37" y1="3.41" x2="10278.37" y2="0.91"/><line class="cls-1" x1="10215.5" y1="612.19" x2="10215.5" y2="609.69"/><line class="cls-3" x1="10215.5" y1="604.67" x2="10215.5" y2="5.04"/><line class="cls-1" x1="10215.5" y1="2.53" x2="10215.5" y2="0.03"/><line class="cls-1" x1="10862.92" y1="616.58" x2="10862.92" y2="614.08"/><line class="cls-2" x1="10862.92" y1="609.07" x2="10862.92" y2="11.17"/><line class="cls-1" x1="10862.92" y1="8.67" x2="10862.92" y2="6.17"/><line class="cls-1" x1="10921.34" y1="618.33" x2="10921.34" y2="615.83"/><line class="cls-3" x1="10921.34" y1="610.81" x2="10921.34" y2="11.18"/><line class="cls-1" x1="10921.34" y1="8.67" x2="10921.34" y2="6.17"/><line class="cls-1" x1="11044.88" y1="618.33" x2="11044.88" y2="615.83"/><line class="cls-3" x1="11044.88" y1="610.81" x2="11044.88" y2="11.18"/><line class="cls-1" x1="11044.88" y1="8.67" x2="11044.88" y2="6.17"/><line class="cls-1" x1="10982.01" y1="617.45" x2="10982.01" y2="614.95"/><line class="cls-3" x1="10982.01" y1="609.94" x2="10982.01" y2="10.3"/><line class="cls-1" x1="10982.01" y1="7.79" x2="10982.01" y2="5.29"/><line class="cls-1" x1="10603.97" y1="614.82" x2="10603.97" y2="612.32"/><line class="cls-2" x1="10603.97" y1="607.32" x2="10603.97" y2="9.42"/><line class="cls-1" x1="10603.97" y1="6.92" x2="10603.97" y2="4.42"/><line class="cls-1" x1="10662.39" y1="616.58" x2="10662.39" y2="614.08"/><line class="cls-3" x1="10662.39" y1="609.06" x2="10662.39" y2="9.43"/><line class="cls-1" x1="10662.39" y1="6.92" x2="10662.39" y2="4.42"/><line class="cls-1" x1="10785.92" y1="616.58" x2="10785.92" y2="614.08"/><line class="cls-3" x1="10785.92" y1="609.06" x2="10785.92" y2="9.43"/><line class="cls-1" x1="10785.92" y1="6.92" x2="10785.92" y2="4.42"/><line class="cls-1" x1="10723.05" y1="615.7" x2="10723.05" y2="613.2"/><line class="cls-3" x1="10723.05" y1="608.18" x2="10723.05" y2="8.55"/><line class="cls-1" x1="10723.05" y1="6.04" x2="10723.05" y2="3.54"/><line class="cls-1" x1="11370.47" y1="616.58" x2="11370.47" y2="614.08"/><line class="cls-2" x1="11370.47" y1="609.07" x2="11370.47" y2="11.17"/><line class="cls-1" x1="11370.47" y1="8.67" x2="11370.47" y2="6.17"/><line class="cls-1" x1="11428.89" y1="618.33" x2="11428.89" y2="615.83"/><line class="cls-3" x1="11428.89" y1="610.81" x2="11428.89" y2="11.18"/><line class="cls-1" x1="11428.89" y1="8.67" x2="11428.89" y2="6.17"/><line class="cls-1" x1="11552.42" y1="618.33" x2="11552.42" y2="615.83"/><line class="cls-3" x1="11552.42" y1="610.81" x2="11552.42" y2="11.18"/><line class="cls-1" x1="11552.42" y1="8.67" x2="11552.42" y2="6.17"/><line class="cls-1" x1="11489.55" y1="617.45" x2="11489.55" y2="614.95"/><line class="cls-3" x1="11489.55" y1="609.94" x2="11489.55" y2="10.3"/><line class="cls-1" x1="11489.55" y1="7.79" x2="11489.55" y2="5.29"/><line class="cls-1" x1="11111.52" y1="614.82" x2="11111.52" y2="612.32"/><line class="cls-2" x1="11111.52" y1="607.32" x2="11111.52" y2="9.42"/><line class="cls-1" x1="11111.52" y1="6.92" x2="11111.52" y2="4.42"/><line class="cls-1" x1="11169.93" y1="616.58" x2="11169.93" y2="614.08"/><line class="cls-3" x1="11169.93" y1="609.06" x2="11169.93" y2="9.43"/><line class="cls-1" x1="11169.93" y1="6.92" x2="11169.93" y2="4.42"/><line class="cls-1" x1="11293.47" y1="616.58" x2="11293.47" y2="614.08"/><line class="cls-3" x1="11293.47" y1="609.06" x2="11293.47" y2="9.43"/><line class="cls-1" x1="11293.47" y1="6.92" x2="11293.47" y2="4.42"/><line class="cls-1" x1="11230.6" y1="615.7" x2="11230.6" y2="613.2"/><line class="cls-3" x1="11230.6" y1="608.18" x2="11230.6" y2="8.55"/><line class="cls-1" x1="11230.6" y1="6.04" x2="11230.6" y2="3.54"/><line class="cls-1" x1="9856.05" y1="611.75" x2="9856.05" y2="609.25"/><line class="cls-2" x1="9856.05" y1="604.25" x2="9856.05" y2="6.35"/><line class="cls-1" x1="9856.05" y1="3.85" x2="9856.05" y2="1.35"/><line class="cls-1" x1="9914.47" y1="613.51" x2="9914.47" y2="611.01"/><line class="cls-3" x1="9914.47" y1="605.99" x2="9914.47" y2="6.35"/><line class="cls-1" x1="9914.47" y1="3.85" x2="9914.47" y2="1.35"/><line class="cls-1" x1="10038" y1="613.51" x2="10038" y2="611.01"/><line class="cls-3" x1="10038" y1="605.99" x2="10038" y2="6.35"/><line class="cls-1" x1="10038" y1="3.85" x2="10038" y2="1.35"/><line class="cls-1" x1="9975.13" y1="612.63" x2="9975.13" y2="610.13"/><line class="cls-3" x1="9975.13" y1="605.11" x2="9975.13" y2="5.48"/><line class="cls-1" x1="9975.13" y1="2.97" x2="9975.13" y2="0.47"/><line class="cls-1" x1="9671.89" y1="615.26" x2="9671.89" y2="612.76"/><line class="cls-3" x1="9671.89" y1="607.74" x2="9671.89" y2="8.11"/><line class="cls-1" x1="9671.89" y1="5.6" x2="9671.89" y2="3.1"/><line class="cls-1" x1="9795.43" y1="615.26" x2="9795.43" y2="612.76"/><line class="cls-3" x1="9795.43" y1="607.74" x2="9795.43" y2="8.11"/><line class="cls-1" x1="9795.43" y1="5.6" x2="9795.43" y2="3.1"/><line class="cls-1" x1="9732.55" y1="614.38" x2="9732.55" y2="611.88"/><line class="cls-3" x1="9732.55" y1="606.87" x2="9732.55" y2="7.23"/><line class="cls-1" x1="9732.55" y1="4.72" x2="9732.55" y2="2.22"/></svg>